G04 PROTEUS GERBER X2 FILE*
%TF.GenerationSoftware,Labcenter,Proteus,8.9-SP0-Build27865*%
%TF.CreationDate,2021-05-25T18:16:11+00:00*%
%TF.FileFunction,Soldermask,Top*%
%TF.FilePolarity,Negative*%
%TF.Part,Single*%
%TF.SameCoordinates,{8c929804-3c0d-4c6f-a7b4-99d41835b1df}*%
%FSLAX45Y45*%
%MOMM*%
G01*
%TA.AperFunction,Material*%
%ADD21C,1.524000*%
%TA.AperFunction,Material*%
%ADD22C,2.032000*%
%AMPPAD015*
4,1,36,
-1.016000,1.143000,
1.016000,1.143000,
1.041970,1.140470,
1.065980,1.133200,
1.087580,1.121650,
1.106290,1.106290,
1.121650,1.087570,
1.133200,1.065980,
1.140470,1.041970,
1.143000,1.016000,
1.143000,-1.016000,
1.140470,-1.041970,
1.133200,-1.065980,
1.121650,-1.087570,
1.106290,-1.106290,
1.087580,-1.121650,
1.065980,-1.133200,
1.041970,-1.140470,
1.016000,-1.143000,
-1.016000,-1.143000,
-1.041970,-1.140470,
-1.065980,-1.133200,
-1.087580,-1.121650,
-1.106290,-1.106290,
-1.121650,-1.087570,
-1.133200,-1.065980,
-1.140470,-1.041970,
-1.143000,-1.016000,
-1.143000,1.016000,
-1.140470,1.041970,
-1.133200,1.065980,
-1.121650,1.087570,
-1.106290,1.106290,
-1.087580,1.121650,
-1.065980,1.133200,
-1.041970,1.140470,
-1.016000,1.143000,
0*%
%ADD23PPAD015*%
%TA.AperFunction,Material*%
%ADD24C,2.540000*%
%TA.AperFunction,Profile*%
%ADD18C,0.203200*%
%TD.AperFunction*%
D21*
X-5153744Y+1510104D03*
X-3020144Y+1510104D03*
X-3020144Y+5777304D03*
X-5420444Y+2005404D03*
X-3248744Y+2005404D03*
X-3248744Y+6005904D03*
X-6487244Y+4291404D03*
X-5763344Y+4291404D03*
X-6715844Y+4215204D03*
X-8087444Y+4215204D03*
X-6411044Y+2729304D03*
X-8544644Y+2729304D03*
X-5458544Y+4291404D03*
X-1686644Y+4291404D03*
X-4963244Y+4596204D03*
X-3934544Y+4939104D03*
X-8316044Y+5053404D03*
X-8316044Y+4215204D03*
X-6334844Y+5282004D03*
X-4315544Y+4024704D03*
X-5153744Y+4824804D03*
X-6030044Y+4824804D03*
X-9725744Y+6005904D03*
X-9001844Y+5053404D03*
X-2143844Y+6005904D03*
X-6220544Y+3491304D03*
X-4429844Y+2767404D03*
X-3934544Y+2462604D03*
X-9480344Y+3986604D03*
X-9480344Y+5509404D03*
X-4963244Y+3758004D03*
X-5980344Y+3709404D03*
X-5953844Y+2957904D03*
X-4125044Y+1281504D03*
X-4260344Y+2996004D03*
X-7554044Y+2234004D03*
X-8773244Y+2195904D03*
X-7782644Y+1052904D03*
X-7782644Y+1776804D03*
X-5664844Y+3834204D03*
X-8316044Y+2939404D03*
X-4900344Y+2399404D03*
X-5668988Y+1467263D03*
X-6144344Y+2005404D03*
X-5915744Y+1472004D03*
X-6550344Y+2029404D03*
X-8087444Y+3509404D03*
X-6480344Y+3509404D03*
X-6900344Y+443304D03*
X-6944444Y+2234004D03*
X-4400344Y+1259404D03*
X-5382344Y+2234004D03*
X-7744544Y+2462604D03*
X-8544644Y+214704D03*
X-3248744Y+1738704D03*
X-3934544Y+1738704D03*
X-3020144Y+290904D03*
X-1686644Y+5510604D03*
X-1686644Y+6770000D03*
X-1458044Y+4253304D03*
D22*
X-6860344Y+6549104D03*
X-6860344Y+5533104D03*
X-6540344Y+6549104D03*
X-6540344Y+5533104D03*
X-6280344Y+6549104D03*
X-6280344Y+5533104D03*
X-6030344Y+6549104D03*
X-6030344Y+5533104D03*
X-5760344Y+6549104D03*
X-5760344Y+5533104D03*
X-5490344Y+6549104D03*
X-5490344Y+5533104D03*
X-5200344Y+6549104D03*
X-5200344Y+5533104D03*
X-4910344Y+6549104D03*
X-4910344Y+5533104D03*
X-7190344Y+1037604D03*
X-8206344Y+1037604D03*
D23*
X-4380344Y+1037604D03*
X-4126344Y+1037604D03*
D24*
X-9745344Y+4234104D03*
X-10000344Y+4234104D03*
X-10255344Y+4234104D03*
X-10510344Y+4234104D03*
X-10765344Y+4234104D03*
X-11020344Y+4234104D03*
X-11015344Y+5764104D03*
X-10760344Y+5764104D03*
X-10505344Y+5764104D03*
X-10250344Y+5764104D03*
X-9995344Y+5764104D03*
X-9740344Y+5764104D03*
X+54656Y+4234104D03*
X-200344Y+4234104D03*
X-455344Y+4234104D03*
X-710344Y+4234104D03*
X-965344Y+4234104D03*
X-1220344Y+4234104D03*
X-1215344Y+5764104D03*
X-960344Y+5764104D03*
X-705344Y+5764104D03*
X-450344Y+5764104D03*
X-195344Y+5764104D03*
X+59656Y+5764104D03*
D18*
X-11240344Y-370596D02*
X+579656Y-370596D01*
X+579656Y+7199404D01*
X-11240344Y+7199404D01*
X-11240344Y-370596D01*
M02*
