G04 PROTEUS GERBER X2 FILE*
%TF.GenerationSoftware,Labcenter,Proteus,8.9-SP0-Build27865*%
%TF.CreationDate,2021-05-25T18:16:11+00:00*%
%TF.FileFunction,Legend,Bot*%
%TF.FilePolarity,Positive*%
%TF.Part,Single*%
%TF.SameCoordinates,{8c929804-3c0d-4c6f-a7b4-99d41835b1df}*%
%FSLAX45Y45*%
%MOMM*%
G01*
%TA.AperFunction,Material*%
%ADD71C,0.203200*%
%TA.AperFunction,NonMaterial*%
%ADD20C,0.203200*%
%TA.AperFunction,Profile*%
%ADD18C,0.203200*%
%TD.AperFunction*%
D71*
X-12920344Y+3984104D02*
X-7890344Y+3984104D01*
X-7890344Y+6034104D01*
X-12920344Y+6034104D01*
X-12920344Y+3984104D01*
X-9902344Y+5854744D02*
X-9902344Y+5946184D01*
X-9965844Y+5946184D01*
X-9997594Y+5915704D01*
X-9997594Y+5885224D01*
X-9965844Y+5854744D01*
X-9902344Y+5854744D01*
X-10045219Y+5946184D02*
X-10108719Y+5946184D01*
X-10076969Y+5946184D02*
X-10076969Y+5854744D01*
X-10045219Y+5854744D02*
X-10108719Y+5854744D01*
X-10156344Y+5869984D02*
X-10172219Y+5854744D01*
X-10235719Y+5854744D01*
X-10251594Y+5869984D01*
X-10251594Y+5885224D01*
X-10235719Y+5900464D01*
X-10172219Y+5900464D01*
X-10156344Y+5915704D01*
X-10156344Y+5930944D01*
X-10172219Y+5946184D01*
X-10235719Y+5946184D01*
X-10251594Y+5930944D01*
X-10283344Y+5854744D02*
X-10283344Y+5946184D01*
X-10362719Y+5946184D01*
X-10378594Y+5930944D01*
X-10378594Y+5915704D01*
X-10362719Y+5900464D01*
X-10283344Y+5900464D01*
X-10410344Y+5946184D02*
X-10410344Y+5854744D01*
X-10505594Y+5854744D01*
X-10537344Y+5854744D02*
X-10537344Y+5915704D01*
X-10569094Y+5946184D01*
X-10600844Y+5946184D01*
X-10632594Y+5915704D01*
X-10632594Y+5854744D01*
X-10537344Y+5885224D02*
X-10632594Y+5885224D01*
X-10759594Y+5946184D02*
X-10664344Y+5854744D01*
X-10664344Y+5946184D02*
X-10711969Y+5900464D01*
X-10823094Y+5915704D02*
X-10854844Y+5946184D01*
X-10854844Y+5854744D01*
X-3120344Y+3984104D02*
X+1909656Y+3984104D01*
X+1909656Y+6034104D01*
X-3120344Y+6034104D01*
X-3120344Y+3984104D01*
X-102344Y+5854744D02*
X-102344Y+5946184D01*
X-165844Y+5946184D01*
X-197594Y+5915704D01*
X-197594Y+5885224D01*
X-165844Y+5854744D01*
X-102344Y+5854744D01*
X-245219Y+5946184D02*
X-308719Y+5946184D01*
X-276969Y+5946184D02*
X-276969Y+5854744D01*
X-245219Y+5854744D02*
X-308719Y+5854744D01*
X-356344Y+5869984D02*
X-372219Y+5854744D01*
X-435719Y+5854744D01*
X-451594Y+5869984D01*
X-451594Y+5885224D01*
X-435719Y+5900464D01*
X-372219Y+5900464D01*
X-356344Y+5915704D01*
X-356344Y+5930944D01*
X-372219Y+5946184D01*
X-435719Y+5946184D01*
X-451594Y+5930944D01*
X-483344Y+5854744D02*
X-483344Y+5946184D01*
X-562719Y+5946184D01*
X-578594Y+5930944D01*
X-578594Y+5915704D01*
X-562719Y+5900464D01*
X-483344Y+5900464D01*
X-610344Y+5946184D02*
X-610344Y+5854744D01*
X-705594Y+5854744D01*
X-737344Y+5854744D02*
X-737344Y+5915704D01*
X-769094Y+5946184D01*
X-800844Y+5946184D01*
X-832594Y+5915704D01*
X-832594Y+5854744D01*
X-737344Y+5885224D02*
X-832594Y+5885224D01*
X-959594Y+5946184D02*
X-864344Y+5854744D01*
X-864344Y+5946184D02*
X-911969Y+5900464D01*
X-1007219Y+5930944D02*
X-1023094Y+5946184D01*
X-1070719Y+5946184D01*
X-1086594Y+5930944D01*
X-1086594Y+5915704D01*
X-1070719Y+5900464D01*
X-1023094Y+5900464D01*
X-1007219Y+5885224D01*
X-1007219Y+5854744D01*
X-1086594Y+5854744D01*
D20*
X-26130000Y+8374700D02*
X-26130000Y+14774700D01*
X-26130000Y+8374700D02*
X-26003000Y+8501700D01*
X-26130000Y+8374700D02*
X-26257000Y+8501700D01*
X-26130000Y+14774700D02*
X-26257000Y+14647700D01*
X-26130000Y+14774700D02*
X-26003000Y+14647700D01*
X-26098250Y+11574700D02*
X-26098359Y+11577334D01*
X-26099249Y+11582603D01*
X-26101111Y+11587872D01*
X-26104154Y+11593141D01*
X-26108809Y+11598343D01*
X-26114078Y+11602169D01*
X-26119347Y+11604609D01*
X-26124616Y+11605990D01*
X-26129885Y+11606450D01*
X-26130000Y+11606450D01*
X-26161750Y+11574700D02*
X-26161641Y+11577334D01*
X-26160751Y+11582603D01*
X-26158889Y+11587872D01*
X-26155846Y+11593141D01*
X-26151191Y+11598343D01*
X-26145922Y+11602169D01*
X-26140653Y+11604609D01*
X-26135384Y+11605990D01*
X-26130115Y+11606450D01*
X-26130000Y+11606450D01*
X-26161750Y+11574700D02*
X-26161641Y+11572066D01*
X-26160751Y+11566797D01*
X-26158889Y+11561528D01*
X-26155846Y+11556259D01*
X-26151191Y+11551057D01*
X-26145922Y+11547231D01*
X-26140653Y+11544791D01*
X-26135384Y+11543410D01*
X-26130115Y+11542950D01*
X-26130000Y+11542950D01*
X-26098250Y+11574700D02*
X-26098359Y+11572066D01*
X-26099249Y+11566797D01*
X-26101111Y+11561528D01*
X-26104154Y+11556259D01*
X-26108809Y+11551057D01*
X-26114078Y+11547231D01*
X-26119347Y+11544791D01*
X-26124616Y+11543410D01*
X-26129885Y+11542950D01*
X-26130000Y+11542950D01*
X-26246840Y+11415950D02*
X-26262080Y+11400075D01*
X-26262080Y+11352450D01*
X-26246840Y+11336575D01*
X-26185880Y+11336575D01*
X-26170640Y+11352450D01*
X-26170640Y+11400075D01*
X-26185880Y+11415950D01*
X-26201120Y+11415950D01*
X-26216360Y+11400075D01*
X-26216360Y+11336575D01*
X-26201120Y+11542950D02*
X-26201120Y+11447700D01*
X-26262080Y+11511200D01*
X-26170640Y+11511200D01*
X-26170640Y+11574700D02*
X-26231600Y+11574700D01*
X-26216360Y+11574700D02*
X-26231600Y+11590575D01*
X-26201120Y+11622325D01*
X-26231600Y+11654075D01*
X-26216360Y+11669950D01*
X-26170640Y+11669950D01*
X-26170640Y+11701700D02*
X-26231600Y+11701700D01*
X-26216360Y+11701700D02*
X-26231600Y+11717575D01*
X-26201120Y+11749325D01*
X-26231600Y+11781075D01*
X-26216360Y+11796950D01*
X-26170640Y+11796950D01*
X-22430000Y+14474700D02*
X-34030000Y+14474700D01*
X-22430000Y+14474700D02*
X-22557000Y+14601700D01*
X-22430000Y+14474700D02*
X-22557000Y+14347700D01*
X-34030000Y+14474700D02*
X-33903000Y+14347700D01*
X-34030000Y+14474700D02*
X-33903000Y+14601700D01*
X-28198250Y+14474700D02*
X-28198359Y+14477334D01*
X-28199249Y+14482603D01*
X-28201111Y+14487872D01*
X-28204154Y+14493141D01*
X-28208809Y+14498343D01*
X-28214078Y+14502169D01*
X-28219347Y+14504609D01*
X-28224616Y+14505990D01*
X-28229885Y+14506450D01*
X-28230000Y+14506450D01*
X-28261750Y+14474700D02*
X-28261641Y+14477334D01*
X-28260751Y+14482603D01*
X-28258889Y+14487872D01*
X-28255846Y+14493141D01*
X-28251191Y+14498343D01*
X-28245922Y+14502169D01*
X-28240653Y+14504609D01*
X-28235384Y+14505990D01*
X-28230115Y+14506450D01*
X-28230000Y+14506450D01*
X-28261750Y+14474700D02*
X-28261641Y+14472066D01*
X-28260751Y+14466797D01*
X-28258889Y+14461528D01*
X-28255846Y+14456259D01*
X-28251191Y+14451057D01*
X-28245922Y+14447231D01*
X-28240653Y+14444791D01*
X-28235384Y+14443410D01*
X-28230115Y+14442950D01*
X-28230000Y+14442950D01*
X-28198250Y+14474700D02*
X-28198359Y+14472066D01*
X-28199249Y+14466797D01*
X-28201111Y+14461528D01*
X-28204154Y+14456259D01*
X-28208809Y+14451057D01*
X-28214078Y+14447231D01*
X-28219347Y+14444791D01*
X-28224616Y+14443410D01*
X-28229885Y+14442950D01*
X-28230000Y+14442950D01*
X-28515750Y+14576300D02*
X-28484000Y+14606780D01*
X-28484000Y+14515340D01*
X-28388750Y+14576300D02*
X-28357000Y+14606780D01*
X-28357000Y+14515340D01*
X-28198250Y+14591540D02*
X-28214125Y+14606780D01*
X-28261750Y+14606780D01*
X-28277625Y+14591540D01*
X-28277625Y+14530580D01*
X-28261750Y+14515340D01*
X-28214125Y+14515340D01*
X-28198250Y+14530580D01*
X-28198250Y+14545820D01*
X-28214125Y+14561060D01*
X-28277625Y+14561060D01*
X-28166500Y+14515340D02*
X-28166500Y+14576300D01*
X-28166500Y+14561060D02*
X-28150625Y+14576300D01*
X-28118875Y+14545820D01*
X-28087125Y+14576300D01*
X-28071250Y+14561060D01*
X-28071250Y+14515340D01*
X-28039500Y+14515340D02*
X-28039500Y+14576300D01*
X-28039500Y+14561060D02*
X-28023625Y+14576300D01*
X-27991875Y+14545820D01*
X-27960125Y+14576300D01*
X-27944250Y+14561060D01*
X-27944250Y+14515340D01*
D18*
X-11240344Y-370596D02*
X+579656Y-370596D01*
X+579656Y+7199404D01*
X-11240344Y+7199404D01*
X-11240344Y-370596D01*
M02*
