G04 PROTEUS GERBER X2 FILE*
%TF.GenerationSoftware,Labcenter,Proteus,8.9-SP0-Build27865*%
%TF.CreationDate,2021-05-25T18:16:11+00:00*%
%TF.FileFunction,Copper,L1,Top*%
%TF.FilePolarity,Positive*%
%TF.Part,Single*%
%TF.SameCoordinates,{8c929804-3c0d-4c6f-a7b4-99d41835b1df}*%
%FSLAX45Y45*%
%MOMM*%
G01*
%TA.AperFunction,Conductor*%
%ADD10C,1.270000*%
%ADD11C,0.762000*%
%ADD12C,1.016000*%
%TA.AperFunction,ViaPad*%
%ADD13C,1.270000*%
%TA.AperFunction,ComponentPad*%
%ADD14C,1.778000*%
%ADD15R,2.032000X2.032000*%
%TA.AperFunction,ComponentPad*%
%ADD16C,2.286000*%
%TA.AperFunction,OtherPad,Unknown*%
%ADD17C,4.500000*%
%TA.AperFunction,Profile*%
%ADD18C,0.203200*%
%TD.AperFunction*%
D10*
X-3020144Y+1510104D02*
X-5153744Y+1510104D01*
X-3020144Y+5777304D02*
X-5941444Y+5777304D01*
X-6030344Y+5688404D01*
X-6030344Y+5533104D01*
X-3248744Y+2005404D02*
X-5420444Y+2005404D01*
X-3248744Y+6005904D02*
X-6051744Y+6005904D01*
X-6280344Y+5777304D01*
X-6280344Y+5533104D01*
X-5763344Y+4291404D02*
X-6487244Y+4291404D01*
X-8087444Y+4215204D02*
X-6715844Y+4215204D01*
X-8544644Y+2729304D02*
X-6411044Y+2729304D01*
X-1686644Y+5510604D02*
X-1468844Y+5510604D01*
X-1215344Y+5764104D01*
X-1686644Y+4291404D02*
X-5458544Y+4291404D01*
X-4963244Y+4596204D02*
X-10510344Y+4596204D01*
X-10510344Y+4234104D01*
X-4963244Y+4596204D02*
X-710344Y+4596204D01*
X-710344Y+4234104D01*
X-4963244Y+3758004D02*
X-4848944Y+3643704D01*
X-428944Y+3643704D01*
X-200344Y+3872304D01*
X-200344Y+4234104D01*
X-3934544Y+4939104D02*
X-173944Y+4939104D01*
X+54656Y+4710504D01*
X+54656Y+4234104D01*
X-4506044Y+4939104D02*
X-4620344Y+5053404D01*
X-8316044Y+5053404D01*
X-8316044Y+4215204D02*
X-8334944Y+4234104D01*
X-9745344Y+4234104D01*
X-4506044Y+4939104D02*
X-3934544Y+4939104D01*
X-6334844Y+5282004D02*
X-10021744Y+5282004D01*
X-10250344Y+5510604D01*
X-10250344Y+5764104D01*
X-6030044Y+5282004D02*
X-6334844Y+5282004D01*
X-6030044Y+5282004D02*
X-678944Y+5282004D01*
X-450344Y+5510604D01*
X-450344Y+5764104D01*
X-4315544Y+4024704D02*
X-4163144Y+3872304D01*
X-965344Y+3872304D01*
X-965344Y+4234104D01*
X-6030044Y+4824804D02*
X-5153744Y+4824804D01*
X-6030044Y+4824804D02*
X-10765344Y+4824804D01*
X-10765344Y+4234104D01*
X-9725744Y+6005904D02*
X-9725744Y+5957004D01*
X-9740344Y+5942404D01*
X-9740344Y+5764104D01*
X-10505344Y+5764104D02*
X-10505344Y+6005904D01*
X-10276744Y+6234504D01*
X-6854944Y+6234504D01*
X-6540344Y+6549104D01*
X-10760344Y+5764104D02*
X-10760344Y+6539304D01*
X-10531744Y+6767904D01*
X-6369244Y+6767904D01*
X-6280344Y+6679004D01*
X-6280344Y+6549104D01*
X-9001844Y+5053404D02*
X-11020344Y+5053404D01*
X-11020344Y+4234104D01*
X+59656Y+5764104D02*
X+59656Y+6310704D01*
X-178744Y+6549104D01*
X-4910344Y+6549104D01*
X-705344Y+5764104D02*
X-705344Y+6005904D01*
X-933944Y+6234504D01*
X-5200344Y+6234504D01*
X-5200344Y+6549104D01*
X-2143844Y+6005904D02*
X-1074644Y+6005904D01*
X-960344Y+5891604D01*
X-960344Y+5764104D01*
D11*
X-6220544Y+3491304D02*
X-5610344Y+3489404D01*
X-5610344Y+2769404D01*
X-4429844Y+2767404D01*
D10*
X-10030544Y+2189404D02*
X-10030427Y+2189521D01*
X-10030544Y+639404D01*
X-9001844Y-204396D01*
X-2562944Y-204396D01*
X-2334344Y+24204D01*
X-2334344Y+2234004D01*
X-2562944Y+2462604D01*
X-3934544Y+2462604D01*
X-9480344Y+5509404D02*
X-9931844Y+5510604D01*
X-9995344Y+5574104D01*
X-9995344Y+5764104D01*
X-5980344Y+3709404D02*
X-10000344Y+3719404D01*
X-10000344Y+4234104D01*
X-5953844Y+2957904D02*
X-5953844Y+3123004D01*
X-6220344Y+3149404D01*
X-6810353Y+3149404D01*
X-6810346Y+3289404D01*
X-8930544Y+3289404D01*
X-9350573Y+2859850D01*
X-10030427Y+2189521D01*
D11*
X-4125044Y+1281504D02*
X-2791544Y+1281504D01*
X-2791544Y+2005404D01*
X-3020144Y+2234004D01*
X-4260344Y+2229404D01*
X-4260344Y+2996004D01*
D12*
X-7554044Y+2234004D02*
X-7600344Y+2187704D01*
X-7600344Y+187454D01*
X-7782644Y+5154D01*
X-8773244Y+5154D01*
X-8773244Y+2195904D01*
X-7782644Y+1052904D02*
X-7782644Y+1776804D01*
D10*
X-5664844Y+3834204D02*
X-5763344Y+3834204D01*
X-5848544Y+3919404D01*
X-9413144Y+3919404D01*
X-9480344Y+3986604D01*
X-5664844Y+3834204D02*
X-5319565Y+3834204D01*
X-4929080Y+3443719D01*
X+26158Y+3443719D01*
X+57287Y+3474848D01*
X+324656Y+3742217D01*
X+324656Y+5145899D01*
X-195344Y+5665899D01*
X-195344Y+5764104D01*
D11*
X-8316044Y+2939404D02*
X-6219565Y+2939404D01*
X-5980344Y+2739404D01*
X-5790344Y+2739404D01*
X-5790344Y+2399404D01*
X-4900344Y+2399404D01*
X-4890344Y+2399404D01*
X-5668988Y+1467263D02*
X-5730344Y+1539404D01*
X-5780344Y+1599404D01*
X-5780344Y+1809404D01*
X-5915744Y+2005404D01*
X-6144344Y+2005404D01*
D10*
X-8087444Y+3509404D02*
X-6480344Y+3509404D01*
D11*
X-6900344Y+443304D02*
X-6982585Y+588131D01*
X-6980344Y+1449404D01*
X-7070344Y+1449404D01*
X-7070344Y+2234004D01*
X-6944444Y+2234004D01*
D10*
X-7744544Y+2462604D02*
X-7840344Y+2209404D01*
X-8260344Y+1399404D01*
X-8544644Y+1389404D01*
X-8544644Y+214704D01*
X-3248744Y+1738704D02*
X-3934544Y+1738704D01*
X-4380344Y+1037604D02*
X-4380344Y+546204D01*
X-4125044Y+290904D01*
X-3020144Y+290904D01*
D11*
X-6550344Y+2029404D02*
X-6550344Y+2228868D01*
X-6545208Y+2234004D01*
X-5382344Y+2234004D01*
X-6258644Y+1472004D02*
X-6258644Y+1260790D01*
X-6257258Y+1259404D01*
X-5915744Y+1472004D02*
X-6258644Y+1472004D01*
X-6550344Y+1629404D01*
X-6550344Y+2029404D01*
X-4400344Y+1259404D02*
X-6257258Y+1259404D01*
D10*
X-1686644Y+6770000D02*
X-1818804Y+6826244D01*
X-6099740Y+6826244D01*
X-6270000Y+6996504D01*
X-10786744Y+6996504D01*
X-11015344Y+6767904D01*
X-11015344Y+5764104D01*
X-1220344Y+4234104D02*
X-1394544Y+4234104D01*
X-1413744Y+4253304D01*
X-1458044Y+4253304D01*
D13*
X-5153744Y+1510104D03*
X-3020144Y+1510104D03*
X-3020144Y+5777304D03*
X-5420444Y+2005404D03*
X-3248744Y+2005404D03*
X-3248744Y+6005904D03*
X-6487244Y+4291404D03*
X-5763344Y+4291404D03*
X-6715844Y+4215204D03*
X-8087444Y+4215204D03*
X-6411044Y+2729304D03*
X-8544644Y+2729304D03*
X-5458544Y+4291404D03*
X-1686644Y+4291404D03*
X-4963244Y+4596204D03*
X-3934544Y+4939104D03*
X-8316044Y+5053404D03*
X-8316044Y+4215204D03*
X-6334844Y+5282004D03*
X-4315544Y+4024704D03*
X-5153744Y+4824804D03*
X-6030044Y+4824804D03*
X-9725744Y+6005904D03*
X-9001844Y+5053404D03*
X-2143844Y+6005904D03*
X-6220544Y+3491304D03*
X-4429844Y+2767404D03*
X-3934544Y+2462604D03*
X-9480344Y+3986604D03*
X-9480344Y+5509404D03*
X-4963244Y+3758004D03*
X-5980344Y+3709404D03*
X-5953844Y+2957904D03*
X-4125044Y+1281504D03*
X-4260344Y+2996004D03*
X-7554044Y+2234004D03*
X-8773244Y+2195904D03*
X-7782644Y+1052904D03*
X-7782644Y+1776804D03*
X-5664844Y+3834204D03*
X-8316044Y+2939404D03*
X-4900344Y+2399404D03*
X-5668988Y+1467263D03*
X-6144344Y+2005404D03*
X-5915744Y+1472004D03*
X-6550344Y+2029404D03*
X-8087444Y+3509404D03*
X-6480344Y+3509404D03*
X-6900344Y+443304D03*
X-6944444Y+2234004D03*
X-4400344Y+1259404D03*
X-5382344Y+2234004D03*
X-7744544Y+2462604D03*
X-8544644Y+214704D03*
X-3248744Y+1738704D03*
X-3934544Y+1738704D03*
X-3020144Y+290904D03*
X-1686644Y+5510604D03*
X-1686644Y+6770000D03*
X-1458044Y+4253304D03*
D14*
X-6860344Y+6549104D03*
X-6860344Y+5533104D03*
X-6540344Y+6549104D03*
X-6540344Y+5533104D03*
X-6280344Y+6549104D03*
X-6280344Y+5533104D03*
X-6030344Y+6549104D03*
X-6030344Y+5533104D03*
X-5760344Y+6549104D03*
X-5760344Y+5533104D03*
X-5490344Y+6549104D03*
X-5490344Y+5533104D03*
X-5200344Y+6549104D03*
X-5200344Y+5533104D03*
X-4910344Y+6549104D03*
X-4910344Y+5533104D03*
X-7190344Y+1037604D03*
X-8206344Y+1037604D03*
D15*
X-4380344Y+1037604D03*
X-4126344Y+1037604D03*
D16*
X-9745344Y+4234104D03*
X-10000344Y+4234104D03*
X-10255344Y+4234104D03*
X-10510344Y+4234104D03*
X-10765344Y+4234104D03*
X-11020344Y+4234104D03*
X-11015344Y+5764104D03*
X-10760344Y+5764104D03*
X-10505344Y+5764104D03*
X-10250344Y+5764104D03*
X-9995344Y+5764104D03*
X-9740344Y+5764104D03*
X+54656Y+4234104D03*
X-200344Y+4234104D03*
X-455344Y+4234104D03*
X-710344Y+4234104D03*
X-965344Y+4234104D03*
X-1220344Y+4234104D03*
X-1215344Y+5764104D03*
X-960344Y+5764104D03*
X-705344Y+5764104D03*
X-450344Y+5764104D03*
X-195344Y+5764104D03*
X+59656Y+5764104D03*
D17*
X+230000Y+6810000D03*
X-750000Y+2655000D03*
X-10580000Y+2655000D03*
D18*
X-11240344Y-370596D02*
X+579656Y-370596D01*
X+579656Y+7199404D01*
X-11240344Y+7199404D01*
X-11240344Y-370596D01*
M02*
