G04 PROTEUS GERBER X2 FILE*
%TF.GenerationSoftware,Labcenter,Proteus,8.9-SP0-Build27865*%
%TF.CreationDate,2021-05-25T18:16:11+00:00*%
%TF.FileFunction,AssemblyDrawing,Bot*%
%TF.FilePolarity,Positive*%
%TF.Part,Single*%
%TF.SameCoordinates,{8c929804-3c0d-4c6f-a7b4-99d41835b1df}*%
%FSLAX45Y45*%
%MOMM*%
G01*
%TA.AperFunction,Material*%
%ADD71C,0.203200*%
%ADD35C,0.914400*%
%ADD36C,0.561140*%
%TA.AperFunction,Profile*%
%ADD18C,0.203200*%
%TD.AperFunction*%
D71*
X-12930504Y+3973944D02*
X-7880184Y+3973944D01*
X-7880184Y+6044264D01*
X-12930504Y+6044264D01*
X-12930504Y+3973944D01*
D35*
X-9745344Y+4234104D02*
X-9745344Y+4234104D01*
D36*
X-8609680Y+4840760D02*
X-8609680Y+5177447D01*
X-8834138Y+5177447D01*
X-8946367Y+5065218D01*
X-8946367Y+4952989D01*
X-8834138Y+4840760D01*
X-8609680Y+4840760D01*
X-9114710Y+5177447D02*
X-9339168Y+5177447D01*
X-9226939Y+5177447D02*
X-9226939Y+4840760D01*
X-9114710Y+4840760D02*
X-9339168Y+4840760D01*
X-9507512Y+4896874D02*
X-9563626Y+4840760D01*
X-9788084Y+4840760D01*
X-9844199Y+4896874D01*
X-9844199Y+4952989D01*
X-9788084Y+5009104D01*
X-9563626Y+5009104D01*
X-9507512Y+5065218D01*
X-9507512Y+5121333D01*
X-9563626Y+5177447D01*
X-9788084Y+5177447D01*
X-9844199Y+5121333D01*
X-9956428Y+4840760D02*
X-9956428Y+5177447D01*
X-10237000Y+5177447D01*
X-10293115Y+5121333D01*
X-10293115Y+5065218D01*
X-10237000Y+5009104D01*
X-9956428Y+5009104D01*
X-10405344Y+5177447D02*
X-10405344Y+4840760D01*
X-10742031Y+4840760D01*
X-10854260Y+4840760D02*
X-10854260Y+5065218D01*
X-10966489Y+5177447D01*
X-11078718Y+5177447D01*
X-11190947Y+5065218D01*
X-11190947Y+4840760D01*
X-10854260Y+4952989D02*
X-11190947Y+4952989D01*
X-11639863Y+5177447D02*
X-11303176Y+4840760D01*
X-11303176Y+5177447D02*
X-11471519Y+5009104D01*
X-11864321Y+5065218D02*
X-11976550Y+5177447D01*
X-11976550Y+4840760D01*
D71*
X-3130504Y+3973944D02*
X+1919816Y+3973944D01*
X+1919816Y+6044264D01*
X-3130504Y+6044264D01*
X-3130504Y+3973944D01*
D35*
X+54656Y+4234104D02*
X+54656Y+4234104D01*
D36*
X+1190320Y+4840760D02*
X+1190320Y+5177447D01*
X+965862Y+5177447D01*
X+853633Y+5065218D01*
X+853633Y+4952989D01*
X+965862Y+4840760D01*
X+1190320Y+4840760D01*
X+685290Y+5177447D02*
X+460832Y+5177447D01*
X+573061Y+5177447D02*
X+573061Y+4840760D01*
X+685290Y+4840760D02*
X+460832Y+4840760D01*
X+292488Y+4896874D02*
X+236374Y+4840760D01*
X+11916Y+4840760D01*
X-44199Y+4896874D01*
X-44199Y+4952989D01*
X+11916Y+5009104D01*
X+236374Y+5009104D01*
X+292488Y+5065218D01*
X+292488Y+5121333D01*
X+236374Y+5177447D01*
X+11916Y+5177447D01*
X-44199Y+5121333D01*
X-156428Y+4840760D02*
X-156428Y+5177447D01*
X-437000Y+5177447D01*
X-493115Y+5121333D01*
X-493115Y+5065218D01*
X-437000Y+5009104D01*
X-156428Y+5009104D01*
X-605344Y+5177447D02*
X-605344Y+4840760D01*
X-942031Y+4840760D01*
X-1054260Y+4840760D02*
X-1054260Y+5065218D01*
X-1166489Y+5177447D01*
X-1278718Y+5177447D01*
X-1390947Y+5065218D01*
X-1390947Y+4840760D01*
X-1054260Y+4952989D02*
X-1390947Y+4952989D01*
X-1839863Y+5177447D02*
X-1503176Y+4840760D01*
X-1503176Y+5177447D02*
X-1671519Y+5009104D01*
X-2008206Y+5121333D02*
X-2064321Y+5177447D01*
X-2232664Y+5177447D01*
X-2288779Y+5121333D01*
X-2288779Y+5065218D01*
X-2232664Y+5009104D01*
X-2064321Y+5009104D01*
X-2008206Y+4952989D01*
X-2008206Y+4840760D01*
X-2288779Y+4840760D01*
D18*
X-11240344Y-370596D02*
X+579656Y-370596D01*
X+579656Y+7199404D01*
X-11240344Y+7199404D01*
X-11240344Y-370596D01*
M02*
