G04 PROTEUS GERBER X2 FILE*
%TF.GenerationSoftware,Labcenter,Proteus,8.9-SP0-Build27865*%
%TF.CreationDate,2021-05-25T18:16:11+00:00*%
%TF.FileFunction,Plated,1,2,PTH*%
%TF.FilePolarity,Positive*%
%TF.Part,Single*%
%TF.SameCoordinates,{8c929804-3c0d-4c6f-a7b4-99d41835b1df}*%
%FSLAX45Y45*%
%MOMM*%
G01*
%TA.AperFunction,ViaDrill*%
%ADD37C,0.508000*%
%TA.AperFunction,ComponentDrill*%
%ADD38C,0.762000*%
%TA.AperFunction,ComponentDrill*%
%ADD39C,1.016000*%
%TA.AperFunction,ComponentDrill*%
%ADD40C,1.270000*%
%TA.AperFunction,OtherDrill,Unknown*%
%ADD41C,3.200000*%
%TD.AperFunction*%
D37*
X-5153744Y+1510104D03*
X-3020144Y+1510104D03*
X-3020144Y+5777304D03*
X-5420444Y+2005404D03*
X-3248744Y+2005404D03*
X-3248744Y+6005904D03*
X-6487244Y+4291404D03*
X-5763344Y+4291404D03*
X-6715844Y+4215204D03*
X-8087444Y+4215204D03*
X-6411044Y+2729304D03*
X-8544644Y+2729304D03*
X-5458544Y+4291404D03*
X-1686644Y+4291404D03*
X-4963244Y+4596204D03*
X-3934544Y+4939104D03*
X-8316044Y+5053404D03*
X-8316044Y+4215204D03*
X-6334844Y+5282004D03*
X-4315544Y+4024704D03*
X-5153744Y+4824804D03*
X-6030044Y+4824804D03*
X-9725744Y+6005904D03*
X-9001844Y+5053404D03*
X-2143844Y+6005904D03*
X-6220544Y+3491304D03*
X-4429844Y+2767404D03*
X-3934544Y+2462604D03*
X-9480344Y+3986604D03*
X-9480344Y+5509404D03*
X-4963244Y+3758004D03*
X-5980344Y+3709404D03*
X-5953844Y+2957904D03*
X-4125044Y+1281504D03*
X-4260344Y+2996004D03*
X-7554044Y+2234004D03*
X-8773244Y+2195904D03*
X-7782644Y+1052904D03*
X-7782644Y+1776804D03*
X-5664844Y+3834204D03*
X-8316044Y+2939404D03*
X-4900344Y+2399404D03*
X-5668988Y+1467263D03*
X-6144344Y+2005404D03*
X-5915744Y+1472004D03*
X-6550344Y+2029404D03*
X-8087444Y+3509404D03*
X-6480344Y+3509404D03*
X-6900344Y+443304D03*
X-6944444Y+2234004D03*
X-4400344Y+1259404D03*
X-5382344Y+2234004D03*
X-7744544Y+2462604D03*
X-8544644Y+214704D03*
X-3248744Y+1738704D03*
X-3934544Y+1738704D03*
X-3020144Y+290904D03*
X-1686644Y+5510604D03*
X-1686644Y+6770000D03*
X-1458044Y+4253304D03*
D38*
X-6490344Y+3304104D03*
X-6236344Y+3304104D03*
X-5982344Y+3304104D03*
X-5728344Y+3304104D03*
X-5474344Y+3304104D03*
X-5220344Y+3304104D03*
X-4966344Y+3304104D03*
X-4712344Y+3304104D03*
X-4712344Y+4066104D03*
X-4966344Y+4066104D03*
X-5220344Y+4066104D03*
X-5474344Y+4066104D03*
X-5728344Y+4066104D03*
X-5982344Y+4066104D03*
X-6236344Y+4066104D03*
X-6490344Y+4066104D03*
X-7440344Y+1804934D03*
X-7186344Y+1804934D03*
X-6932344Y+1804934D03*
X-6678344Y+1804934D03*
X-6424344Y+1804934D03*
X-6170344Y+1804934D03*
X-5916344Y+1804934D03*
X-5662344Y+1804934D03*
X-5408344Y+1804934D03*
X-5154344Y+1804934D03*
X-4900344Y+1804934D03*
X-4646344Y+1804934D03*
X-4392344Y+1804934D03*
X-4138344Y+1804934D03*
X-4138344Y+2566934D03*
X-4392344Y+2566934D03*
X-4646344Y+2566934D03*
X-4900344Y+2566934D03*
X-5154344Y+2566934D03*
X-5408344Y+2566934D03*
X-5662344Y+2566934D03*
X-5916344Y+2566934D03*
X-6170344Y+2566934D03*
X-6424344Y+2566934D03*
X-6678344Y+2566934D03*
X-6932344Y+2566934D03*
X-7186344Y+2566934D03*
X-7438344Y+2566934D03*
D39*
X-6750344Y+1037604D03*
X-6496344Y+1037604D03*
X-6242344Y+1037604D03*
X-5988344Y+1037604D03*
X-5734344Y+1037604D03*
X-5480344Y+1037604D03*
X-8960344Y+1037604D03*
X-9214344Y+1037604D03*
X-9468344Y+1037604D03*
X-9722344Y+1037604D03*
D38*
X-6860344Y+6549104D03*
X-6860344Y+5533104D03*
X-6540344Y+6549104D03*
X-6540344Y+5533104D03*
X-6280344Y+6549104D03*
X-6280344Y+5533104D03*
X-6030344Y+6549104D03*
X-6030344Y+5533104D03*
X-5760344Y+6549104D03*
X-5760344Y+5533104D03*
X-5490344Y+6549104D03*
X-5490344Y+5533104D03*
X-5200344Y+6549104D03*
X-5200344Y+5533104D03*
X-4910344Y+6549104D03*
X-4910344Y+5533104D03*
X-7190344Y+1037604D03*
X-8206344Y+1037604D03*
D39*
X-8470344Y+2439934D03*
X-8470344Y+2185934D03*
X-8470344Y+1931934D03*
X-4380344Y+1037604D03*
X-4126344Y+1037604D03*
D40*
X-9745344Y+4234104D03*
X-10000344Y+4234104D03*
X-10255344Y+4234104D03*
X-10510344Y+4234104D03*
X-10765344Y+4234104D03*
X-11020344Y+4234104D03*
X-11015344Y+5764104D03*
X-10760344Y+5764104D03*
X-10505344Y+5764104D03*
X-10250344Y+5764104D03*
X-9995344Y+5764104D03*
X-9740344Y+5764104D03*
X+54656Y+4234104D03*
X-200344Y+4234104D03*
X-455344Y+4234104D03*
X-710344Y+4234104D03*
X-965344Y+4234104D03*
X-1220344Y+4234104D03*
X-1215344Y+5764104D03*
X-960344Y+5764104D03*
X-705344Y+5764104D03*
X-450344Y+5764104D03*
X-195344Y+5764104D03*
X+59656Y+5764104D03*
D41*
X+230000Y+6810000D03*
X-750000Y+2655000D03*
X-10580000Y+2655000D03*
M02*
