G04 PROTEUS GERBER X2 FILE*
%TF.GenerationSoftware,Labcenter,Proteus,8.9-SP0-Build27865*%
%TF.CreationDate,2021-05-25T18:16:11+00:00*%
%TF.FileFunction,Legend,Top*%
%TF.FilePolarity,Positive*%
%TF.Part,Single*%
%TF.SameCoordinates,{8c929804-3c0d-4c6f-a7b4-99d41835b1df}*%
%FSLAX45Y45*%
%MOMM*%
G01*
%TA.AperFunction,Material*%
%ADD71C,0.203200*%
%TA.AperFunction,Profile*%
%ADD18C,0.203200*%
%TA.AperFunction,NonMaterial*%
%ADD20C,0.203200*%
%TD.AperFunction*%
D71*
X-6617344Y+3431104D02*
X-6617344Y+3558104D01*
X-6490344Y+3685104D02*
X-6492780Y+3710980D01*
X-6499829Y+3734952D01*
X-6511106Y+3756542D01*
X-6526222Y+3775274D01*
X-6544790Y+3790673D01*
X-6566425Y+3802262D01*
X-6590738Y+3809564D01*
X-6617344Y+3812104D01*
X-6490344Y+3685104D02*
X-6492780Y+3658498D01*
X-6499829Y+3634185D01*
X-6511106Y+3612550D01*
X-6526222Y+3593982D01*
X-6544790Y+3578866D01*
X-6566425Y+3567589D01*
X-6590738Y+3560540D01*
X-6617344Y+3558104D01*
X-6617344Y+3812104D02*
X-6617344Y+3939104D01*
X-4585344Y+3431104D02*
X-4585344Y+3939104D01*
X-6617344Y+3431104D02*
X-4585344Y+3431104D01*
X-4585344Y+3939104D02*
X-6617344Y+3939104D01*
X-6749424Y+3446979D02*
X-6749424Y+3526354D01*
X-6734184Y+3526354D01*
X-6657984Y+3446979D01*
X-6688464Y+3653354D02*
X-6688464Y+3558104D01*
X-6749424Y+3621604D01*
X-6657984Y+3621604D01*
X-6688464Y+3780354D02*
X-6688464Y+3685104D01*
X-6749424Y+3748604D01*
X-6657984Y+3748604D01*
X-6749424Y+3827979D02*
X-6749424Y+3907354D01*
X-6734184Y+3907354D01*
X-6657984Y+3827979D01*
X-7501844Y+1931934D02*
X-4072844Y+1931934D01*
X-4072844Y+2439934D01*
X-7501844Y+2439934D01*
X-7501844Y+1931934D02*
X-7501844Y+2058934D01*
X-7501844Y+2439934D02*
X-7501844Y+2312934D01*
X-7501844Y+2058934D02*
X-7475876Y+2061461D01*
X-7451862Y+2068732D01*
X-7430267Y+2080282D01*
X-7411555Y+2095645D01*
X-7396192Y+2114357D01*
X-7384642Y+2135953D01*
X-7377371Y+2159967D01*
X-7374844Y+2185934D01*
X-7501844Y+2312934D02*
X-7475876Y+2310407D01*
X-7451862Y+2303136D01*
X-7430267Y+2291587D01*
X-7411555Y+2276223D01*
X-7396192Y+2257511D01*
X-7384642Y+2235916D01*
X-7377371Y+2211902D01*
X-7374844Y+2185934D01*
X-7443860Y+1972574D02*
X-7443885Y+1973171D01*
X-7444087Y+1974367D01*
X-7444511Y+1975563D01*
X-7445205Y+1976759D01*
X-7446265Y+1977938D01*
X-7447461Y+1978801D01*
X-7448657Y+1979350D01*
X-7449853Y+1979659D01*
X-7451044Y+1979758D01*
X-7458228Y+1972574D02*
X-7458203Y+1973171D01*
X-7458001Y+1974367D01*
X-7457577Y+1975563D01*
X-7456883Y+1976759D01*
X-7455823Y+1977938D01*
X-7454627Y+1978801D01*
X-7453431Y+1979350D01*
X-7452235Y+1979659D01*
X-7451044Y+1979758D01*
X-7458228Y+1972574D02*
X-7458203Y+1971977D01*
X-7458001Y+1970781D01*
X-7457577Y+1969585D01*
X-7456883Y+1968389D01*
X-7455823Y+1967210D01*
X-7454627Y+1966347D01*
X-7453431Y+1965798D01*
X-7452235Y+1965489D01*
X-7451044Y+1965390D01*
X-7443860Y+1972574D02*
X-7443885Y+1971977D01*
X-7444087Y+1970781D01*
X-7444511Y+1969585D01*
X-7445205Y+1968389D01*
X-7446265Y+1967210D01*
X-7447461Y+1966347D01*
X-7448657Y+1965798D01*
X-7449853Y+1965489D01*
X-7451044Y+1965390D01*
X-7542484Y+1360434D02*
X-7603444Y+1360434D01*
X-7633924Y+1392184D01*
X-7633924Y+1423934D01*
X-7603444Y+1455684D01*
X-7542484Y+1455684D01*
X-7572964Y+1360434D02*
X-7572964Y+1455684D01*
X-7633924Y+1487434D02*
X-7633924Y+1582684D01*
X-7633924Y+1535059D02*
X-7542484Y+1535059D01*
X-7542484Y+1614434D02*
X-7633924Y+1614434D01*
X-7588204Y+1662059D01*
X-7633924Y+1709684D01*
X-7542484Y+1709684D01*
X-7542484Y+1836684D02*
X-7542484Y+1741434D01*
X-7633924Y+1741434D01*
X-7633924Y+1836684D01*
X-7588204Y+1741434D02*
X-7588204Y+1804934D01*
X-7572964Y+1931934D02*
X-7572964Y+1963684D01*
X-7542484Y+1963684D01*
X-7542484Y+1900184D01*
X-7572964Y+1868434D01*
X-7603444Y+1868434D01*
X-7633924Y+1900184D01*
X-7633924Y+1947809D01*
X-7618684Y+1963684D01*
X-7542484Y+1995434D02*
X-7603444Y+1995434D01*
X-7633924Y+2027184D01*
X-7633924Y+2058934D01*
X-7603444Y+2090684D01*
X-7542484Y+2090684D01*
X-7572964Y+1995434D02*
X-7572964Y+2090684D01*
X-7618684Y+2138309D02*
X-7633924Y+2154184D01*
X-7633924Y+2201809D01*
X-7618684Y+2217684D01*
X-7603444Y+2217684D01*
X-7588204Y+2201809D01*
X-7572964Y+2217684D01*
X-7557724Y+2217684D01*
X-7542484Y+2201809D01*
X-7542484Y+2154184D01*
X-7557724Y+2138309D01*
X-7588204Y+2170059D02*
X-7588204Y+2201809D01*
X-7618684Y+2265309D02*
X-7633924Y+2281184D01*
X-7633924Y+2328809D01*
X-7618684Y+2344684D01*
X-7603444Y+2344684D01*
X-7588204Y+2328809D01*
X-7588204Y+2281184D01*
X-7572964Y+2265309D01*
X-7542484Y+2265309D01*
X-7542484Y+2344684D01*
X-7588204Y+2408184D02*
X-7603444Y+2392309D01*
X-7618684Y+2392309D01*
X-7633924Y+2408184D01*
X-7633924Y+2455809D01*
X-7618684Y+2471684D01*
X-7603444Y+2471684D01*
X-7588204Y+2455809D01*
X-7588204Y+2408184D01*
X-7572964Y+2392309D01*
X-7557724Y+2392309D01*
X-7542484Y+2408184D01*
X-7542484Y+2455809D01*
X-7557724Y+2471684D01*
X-7572964Y+2471684D01*
X-7588204Y+2455809D01*
X-7542484Y+2503434D02*
X-7633924Y+2503434D01*
X-7633924Y+2582809D01*
X-7618684Y+2598684D01*
X-7603444Y+2598684D01*
X-7588204Y+2582809D01*
X-7588204Y+2503434D01*
X-7588204Y+2646309D02*
X-7588204Y+2725684D01*
X-7542484Y+2757434D02*
X-7633924Y+2757434D01*
X-7633924Y+2836809D01*
X-7618684Y+2852684D01*
X-7603444Y+2852684D01*
X-7588204Y+2836809D01*
X-7588204Y+2757434D01*
X-7633924Y+2884434D02*
X-7557724Y+2884434D01*
X-7542484Y+2900309D01*
X-7542484Y+2963809D01*
X-7557724Y+2979684D01*
X-7633924Y+2979684D01*
X-6877344Y+910604D02*
X-5353344Y+910604D01*
X-5353344Y+1164604D01*
X-6877344Y+1164604D01*
X-6877344Y+910604D01*
X-6496344Y+1205244D02*
X-6496344Y+1296684D01*
X-6416969Y+1296684D01*
X-6401094Y+1281444D01*
X-6401094Y+1266204D01*
X-6416969Y+1250964D01*
X-6401094Y+1235724D01*
X-6401094Y+1220484D01*
X-6416969Y+1205244D01*
X-6496344Y+1205244D01*
X-6496344Y+1250964D02*
X-6416969Y+1250964D01*
X-6369344Y+1266204D02*
X-6337594Y+1296684D01*
X-6305844Y+1296684D01*
X-6274094Y+1266204D01*
X-6274094Y+1235724D01*
X-6305844Y+1205244D01*
X-6337594Y+1205244D01*
X-6369344Y+1235724D01*
X-6369344Y+1266204D01*
X-6242344Y+1296684D02*
X-6147094Y+1296684D01*
X-6194719Y+1296684D02*
X-6194719Y+1205244D01*
X-6115344Y+1266204D02*
X-6083594Y+1296684D01*
X-6051844Y+1296684D01*
X-6020094Y+1266204D01*
X-6020094Y+1235724D01*
X-6051844Y+1205244D01*
X-6083594Y+1205244D01*
X-6115344Y+1235724D01*
X-6115344Y+1266204D01*
X-5893094Y+1205244D02*
X-5988344Y+1205244D01*
X-5988344Y+1296684D01*
X-5893094Y+1296684D01*
X-5988344Y+1250964D02*
X-5924844Y+1250964D01*
X-5861344Y+1220484D02*
X-5845469Y+1205244D01*
X-5781969Y+1205244D01*
X-5766094Y+1220484D01*
X-5766094Y+1235724D01*
X-5781969Y+1250964D01*
X-5845469Y+1250964D01*
X-5861344Y+1266204D01*
X-5861344Y+1281444D01*
X-5845469Y+1296684D01*
X-5781969Y+1296684D01*
X-5766094Y+1281444D01*
X-9849344Y+910604D02*
X-8833344Y+910604D01*
X-8833344Y+1164604D01*
X-9849344Y+1164604D01*
X-9849344Y+910604D01*
X-9595344Y+869964D02*
X-9595344Y+778524D01*
X-9500094Y+778524D01*
X-9373094Y+778524D02*
X-9468344Y+778524D01*
X-9468344Y+869964D01*
X-9373094Y+869964D01*
X-9468344Y+824244D02*
X-9404844Y+824244D01*
X-9341344Y+778524D02*
X-9341344Y+869964D01*
X-9277844Y+869964D01*
X-9246094Y+839484D01*
X-9246094Y+809004D01*
X-9277844Y+778524D01*
X-9341344Y+778524D01*
X-9214344Y+793764D02*
X-9198469Y+778524D01*
X-9134969Y+778524D01*
X-9119094Y+793764D01*
X-9119094Y+809004D01*
X-9134969Y+824244D01*
X-9198469Y+824244D01*
X-9214344Y+839484D01*
X-9214344Y+854724D01*
X-9198469Y+869964D01*
X-9134969Y+869964D01*
X-9119094Y+854724D01*
X-6860344Y+6422104D02*
X-6860344Y+6295104D01*
X-6923844Y+5787104D02*
X-6796844Y+5787104D01*
X-6796844Y+6295104D01*
X-6923844Y+6295104D01*
X-6923844Y+5787104D01*
X-6860344Y+5787104D02*
X-6860344Y+5660104D01*
X-6664764Y+5914104D02*
X-6756204Y+5914104D01*
X-6756204Y+5993479D01*
X-6740964Y+6009354D01*
X-6725724Y+6009354D01*
X-6710484Y+5993479D01*
X-6710484Y+5914104D01*
X-6710484Y+5993479D02*
X-6695244Y+6009354D01*
X-6664764Y+6009354D01*
X-6725724Y+6072854D02*
X-6756204Y+6104604D01*
X-6664764Y+6104604D01*
X-6540344Y+6422104D02*
X-6540344Y+6295104D01*
X-6603844Y+5787104D02*
X-6476844Y+5787104D01*
X-6476844Y+6295104D01*
X-6603844Y+6295104D01*
X-6603844Y+5787104D01*
X-6540344Y+5787104D02*
X-6540344Y+5660104D01*
X-6344764Y+5914104D02*
X-6436204Y+5914104D01*
X-6436204Y+5993479D01*
X-6420964Y+6009354D01*
X-6405724Y+6009354D01*
X-6390484Y+5993479D01*
X-6390484Y+5914104D01*
X-6390484Y+5993479D02*
X-6375244Y+6009354D01*
X-6344764Y+6009354D01*
X-6420964Y+6056979D02*
X-6436204Y+6072854D01*
X-6436204Y+6120479D01*
X-6420964Y+6136354D01*
X-6405724Y+6136354D01*
X-6390484Y+6120479D01*
X-6390484Y+6072854D01*
X-6375244Y+6056979D01*
X-6344764Y+6056979D01*
X-6344764Y+6136354D01*
X-6280344Y+6422104D02*
X-6280344Y+6295104D01*
X-6343844Y+5787104D02*
X-6216844Y+5787104D01*
X-6216844Y+6295104D01*
X-6343844Y+6295104D01*
X-6343844Y+5787104D01*
X-6280344Y+5787104D02*
X-6280344Y+5660104D01*
X-6084764Y+5914104D02*
X-6176204Y+5914104D01*
X-6176204Y+5993479D01*
X-6160964Y+6009354D01*
X-6145724Y+6009354D01*
X-6130484Y+5993479D01*
X-6130484Y+5914104D01*
X-6130484Y+5993479D02*
X-6115244Y+6009354D01*
X-6084764Y+6009354D01*
X-6160964Y+6056979D02*
X-6176204Y+6072854D01*
X-6176204Y+6120479D01*
X-6160964Y+6136354D01*
X-6145724Y+6136354D01*
X-6130484Y+6120479D01*
X-6115244Y+6136354D01*
X-6100004Y+6136354D01*
X-6084764Y+6120479D01*
X-6084764Y+6072854D01*
X-6100004Y+6056979D01*
X-6130484Y+6088729D02*
X-6130484Y+6120479D01*
X-6030344Y+6422104D02*
X-6030344Y+6295104D01*
X-6093844Y+5787104D02*
X-5966844Y+5787104D01*
X-5966844Y+6295104D01*
X-6093844Y+6295104D01*
X-6093844Y+5787104D01*
X-6030344Y+5787104D02*
X-6030344Y+5660104D01*
X-5834764Y+5914104D02*
X-5926204Y+5914104D01*
X-5926204Y+5993479D01*
X-5910964Y+6009354D01*
X-5895724Y+6009354D01*
X-5880484Y+5993479D01*
X-5880484Y+5914104D01*
X-5880484Y+5993479D02*
X-5865244Y+6009354D01*
X-5834764Y+6009354D01*
X-5865244Y+6136354D02*
X-5865244Y+6041104D01*
X-5926204Y+6104604D01*
X-5834764Y+6104604D01*
X-5760344Y+6422104D02*
X-5760344Y+6295104D01*
X-5823844Y+5787104D02*
X-5696844Y+5787104D01*
X-5696844Y+6295104D01*
X-5823844Y+6295104D01*
X-5823844Y+5787104D01*
X-5760344Y+5787104D02*
X-5760344Y+5660104D01*
X-5564764Y+5914104D02*
X-5656204Y+5914104D01*
X-5656204Y+5993479D01*
X-5640964Y+6009354D01*
X-5625724Y+6009354D01*
X-5610484Y+5993479D01*
X-5610484Y+5914104D01*
X-5610484Y+5993479D02*
X-5595244Y+6009354D01*
X-5564764Y+6009354D01*
X-5656204Y+6136354D02*
X-5656204Y+6056979D01*
X-5625724Y+6056979D01*
X-5625724Y+6120479D01*
X-5610484Y+6136354D01*
X-5580004Y+6136354D01*
X-5564764Y+6120479D01*
X-5564764Y+6072854D01*
X-5580004Y+6056979D01*
X-5490344Y+6422104D02*
X-5490344Y+6295104D01*
X-5553844Y+5787104D02*
X-5426844Y+5787104D01*
X-5426844Y+6295104D01*
X-5553844Y+6295104D01*
X-5553844Y+5787104D01*
X-5490344Y+5787104D02*
X-5490344Y+5660104D01*
X-5294764Y+5914104D02*
X-5386204Y+5914104D01*
X-5386204Y+5993479D01*
X-5370964Y+6009354D01*
X-5355724Y+6009354D01*
X-5340484Y+5993479D01*
X-5340484Y+5914104D01*
X-5340484Y+5993479D02*
X-5325244Y+6009354D01*
X-5294764Y+6009354D01*
X-5370964Y+6136354D02*
X-5386204Y+6120479D01*
X-5386204Y+6072854D01*
X-5370964Y+6056979D01*
X-5310004Y+6056979D01*
X-5294764Y+6072854D01*
X-5294764Y+6120479D01*
X-5310004Y+6136354D01*
X-5325244Y+6136354D01*
X-5340484Y+6120479D01*
X-5340484Y+6056979D01*
X-5200344Y+6422104D02*
X-5200344Y+6295104D01*
X-5263844Y+5787104D02*
X-5136844Y+5787104D01*
X-5136844Y+6295104D01*
X-5263844Y+6295104D01*
X-5263844Y+5787104D01*
X-5200344Y+5787104D02*
X-5200344Y+5660104D01*
X-5004764Y+5914104D02*
X-5096204Y+5914104D01*
X-5096204Y+5993479D01*
X-5080964Y+6009354D01*
X-5065724Y+6009354D01*
X-5050484Y+5993479D01*
X-5050484Y+5914104D01*
X-5050484Y+5993479D02*
X-5035244Y+6009354D01*
X-5004764Y+6009354D01*
X-5096204Y+6056979D02*
X-5096204Y+6136354D01*
X-5080964Y+6136354D01*
X-5004764Y+6056979D01*
X-4910344Y+6422104D02*
X-4910344Y+6295104D01*
X-4973844Y+5787104D02*
X-4846844Y+5787104D01*
X-4846844Y+6295104D01*
X-4973844Y+6295104D01*
X-4973844Y+5787104D01*
X-4910344Y+5787104D02*
X-4910344Y+5660104D01*
X-4714764Y+5914104D02*
X-4806204Y+5914104D01*
X-4806204Y+5993479D01*
X-4790964Y+6009354D01*
X-4775724Y+6009354D01*
X-4760484Y+5993479D01*
X-4760484Y+5914104D01*
X-4760484Y+5993479D02*
X-4745244Y+6009354D01*
X-4714764Y+6009354D01*
X-4760484Y+6072854D02*
X-4775724Y+6056979D01*
X-4790964Y+6056979D01*
X-4806204Y+6072854D01*
X-4806204Y+6120479D01*
X-4790964Y+6136354D01*
X-4775724Y+6136354D01*
X-4760484Y+6120479D01*
X-4760484Y+6072854D01*
X-4745244Y+6056979D01*
X-4730004Y+6056979D01*
X-4714764Y+6072854D01*
X-4714764Y+6120479D01*
X-4730004Y+6136354D01*
X-4745244Y+6136354D01*
X-4760484Y+6120479D01*
X-7317344Y+1037604D02*
X-7444344Y+1037604D01*
X-7952344Y+974104D02*
X-7444344Y+974104D01*
X-7444344Y+1101104D01*
X-7952344Y+1101104D01*
X-7952344Y+974104D01*
X-7952344Y+1037604D02*
X-8079344Y+1037604D01*
X-7825344Y+842024D02*
X-7825344Y+933464D01*
X-7745969Y+933464D01*
X-7730094Y+918224D01*
X-7730094Y+902984D01*
X-7745969Y+887744D01*
X-7825344Y+887744D01*
X-7745969Y+887744D02*
X-7730094Y+872504D01*
X-7730094Y+842024D01*
X-7603094Y+902984D02*
X-7618969Y+887744D01*
X-7666594Y+887744D01*
X-7682469Y+902984D01*
X-7682469Y+918224D01*
X-7666594Y+933464D01*
X-7618969Y+933464D01*
X-7603094Y+918224D01*
X-7603094Y+857264D01*
X-7618969Y+842024D01*
X-7666594Y+842024D01*
X-8597344Y+1804934D02*
X-8343344Y+1804934D01*
X-8343344Y+2566934D01*
X-8597344Y+2566934D01*
X-8597344Y+1804934D01*
X-8226504Y+1741434D02*
X-8211264Y+1757309D01*
X-8211264Y+1820809D01*
X-8226504Y+1836684D01*
X-8241744Y+1836684D01*
X-8256984Y+1820809D01*
X-8256984Y+1757309D01*
X-8272224Y+1741434D01*
X-8287464Y+1741434D01*
X-8302704Y+1757309D01*
X-8302704Y+1820809D01*
X-8287464Y+1836684D01*
X-8211264Y+1963684D02*
X-8211264Y+1868434D01*
X-8302704Y+1868434D01*
X-8302704Y+1963684D01*
X-8256984Y+1868434D02*
X-8256984Y+1931934D01*
X-8302704Y+1995434D02*
X-8211264Y+1995434D01*
X-8211264Y+2090684D01*
X-8211264Y+2217684D02*
X-8211264Y+2122434D01*
X-8302704Y+2122434D01*
X-8302704Y+2217684D01*
X-8256984Y+2122434D02*
X-8256984Y+2185934D01*
X-8302704Y+2249434D02*
X-8302704Y+2344684D01*
X-8302704Y+2297059D02*
X-8211264Y+2297059D01*
X-8272224Y+2376434D02*
X-8302704Y+2408184D01*
X-8302704Y+2439934D01*
X-8272224Y+2471684D01*
X-8241744Y+2471684D01*
X-8211264Y+2439934D01*
X-8211264Y+2408184D01*
X-8241744Y+2376434D01*
X-8272224Y+2376434D01*
X-8211264Y+2503434D02*
X-8302704Y+2503434D01*
X-8302704Y+2582809D01*
X-8287464Y+2598684D01*
X-8272224Y+2598684D01*
X-8256984Y+2582809D01*
X-8256984Y+2503434D01*
X-8256984Y+2582809D02*
X-8241744Y+2598684D01*
X-8211264Y+2598684D01*
X-4507344Y+910604D02*
X-3999344Y+910604D01*
X-3999344Y+1164604D01*
X-4507344Y+1164604D01*
X-4507344Y+910604D01*
X-5015344Y+1205244D02*
X-5015344Y+1266204D01*
X-4983594Y+1296684D01*
X-4951844Y+1296684D01*
X-4920094Y+1266204D01*
X-4920094Y+1205244D01*
X-5015344Y+1235724D02*
X-4920094Y+1235724D01*
X-4888344Y+1296684D02*
X-4888344Y+1205244D01*
X-4793094Y+1205244D01*
X-4745469Y+1296684D02*
X-4681969Y+1296684D01*
X-4713719Y+1296684D02*
X-4713719Y+1205244D01*
X-4745469Y+1205244D02*
X-4681969Y+1205244D01*
X-4634344Y+1205244D02*
X-4634344Y+1296684D01*
X-4586719Y+1250964D01*
X-4539094Y+1296684D01*
X-4539094Y+1205244D01*
X-4412094Y+1205244D02*
X-4507344Y+1205244D01*
X-4507344Y+1296684D01*
X-4412094Y+1296684D01*
X-4507344Y+1250964D02*
X-4443844Y+1250964D01*
X-4380344Y+1205244D02*
X-4380344Y+1296684D01*
X-4285094Y+1205244D01*
X-4285094Y+1296684D01*
X-4253344Y+1296684D02*
X-4158094Y+1296684D01*
X-4205719Y+1296684D02*
X-4205719Y+1205244D01*
X-4126344Y+1205244D02*
X-4126344Y+1266204D01*
X-4094594Y+1296684D01*
X-4062844Y+1296684D01*
X-4031094Y+1266204D01*
X-4031094Y+1205244D01*
X-4126344Y+1235724D02*
X-4031094Y+1235724D01*
X-3999344Y+1266204D02*
X-3967594Y+1296684D01*
X-3935844Y+1296684D01*
X-3904094Y+1266204D01*
X-3904094Y+1235724D01*
X-3935844Y+1205244D01*
X-3967594Y+1205244D01*
X-3999344Y+1235724D01*
X-3999344Y+1266204D01*
X-3777094Y+1220484D02*
X-3792969Y+1205244D01*
X-3840594Y+1205244D01*
X-3872344Y+1235724D01*
X-3872344Y+1266204D01*
X-3840594Y+1296684D01*
X-3792969Y+1296684D01*
X-3777094Y+1281444D01*
X-3745344Y+1205244D02*
X-3745344Y+1266204D01*
X-3713594Y+1296684D01*
X-3681844Y+1296684D01*
X-3650094Y+1266204D01*
X-3650094Y+1205244D01*
X-3745344Y+1235724D02*
X-3650094Y+1235724D01*
X-3618344Y+1266204D02*
X-3586594Y+1296684D01*
X-3554844Y+1296684D01*
X-3523094Y+1266204D01*
X-3523094Y+1235724D01*
X-3554844Y+1205244D01*
X-3586594Y+1205244D01*
X-3618344Y+1235724D01*
X-3618344Y+1266204D01*
D18*
X-11240344Y-370596D02*
X+579656Y-370596D01*
X+579656Y+7199404D01*
X-11240344Y+7199404D01*
X-11240344Y-370596D01*
D20*
X-11240344Y+7349404D02*
X+579656Y+7349404D01*
X-11240344Y+7349404D02*
X-11113344Y+7222404D01*
X-11240344Y+7349404D02*
X-11113344Y+7476404D01*
X+579656Y+7349404D02*
X+452656Y+7476404D01*
X+579656Y+7349404D02*
X+452656Y+7222404D01*
X-5298594Y+7349404D02*
X-5298703Y+7352038D01*
X-5299593Y+7357307D01*
X-5301455Y+7362576D01*
X-5304498Y+7367845D01*
X-5309153Y+7373047D01*
X-5314422Y+7376873D01*
X-5319691Y+7379313D01*
X-5324960Y+7380694D01*
X-5330229Y+7381154D01*
X-5330344Y+7381154D01*
X-5362094Y+7349404D02*
X-5361985Y+7352038D01*
X-5361095Y+7357307D01*
X-5359233Y+7362576D01*
X-5356190Y+7367845D01*
X-5351535Y+7373047D01*
X-5346266Y+7376873D01*
X-5340997Y+7379313D01*
X-5335728Y+7380694D01*
X-5330459Y+7381154D01*
X-5330344Y+7381154D01*
X-5362094Y+7349404D02*
X-5361985Y+7346770D01*
X-5361095Y+7341501D01*
X-5359233Y+7336232D01*
X-5356190Y+7330963D01*
X-5351535Y+7325761D01*
X-5346266Y+7321935D01*
X-5340997Y+7319495D01*
X-5335728Y+7318114D01*
X-5330459Y+7317654D01*
X-5330344Y+7317654D01*
X-5298594Y+7349404D02*
X-5298703Y+7346770D01*
X-5299593Y+7341501D01*
X-5301455Y+7336232D01*
X-5304498Y+7330963D01*
X-5309153Y+7325761D01*
X-5314422Y+7321935D01*
X-5319691Y+7319495D01*
X-5324960Y+7318114D01*
X-5330229Y+7317654D01*
X-5330344Y+7317654D01*
X-5743094Y+7451004D02*
X-5711344Y+7481484D01*
X-5711344Y+7390044D01*
X-5616094Y+7451004D02*
X-5584344Y+7481484D01*
X-5584344Y+7390044D01*
X-5489094Y+7435764D02*
X-5504969Y+7451004D01*
X-5504969Y+7466244D01*
X-5489094Y+7481484D01*
X-5441469Y+7481484D01*
X-5425594Y+7466244D01*
X-5425594Y+7451004D01*
X-5441469Y+7435764D01*
X-5489094Y+7435764D01*
X-5504969Y+7420524D01*
X-5504969Y+7405284D01*
X-5489094Y+7390044D01*
X-5441469Y+7390044D01*
X-5425594Y+7405284D01*
X-5425594Y+7420524D01*
X-5441469Y+7435764D01*
X-5346219Y+7405284D02*
X-5330344Y+7405284D01*
X-5330344Y+7390044D01*
X-5346219Y+7390044D01*
X-5346219Y+7405284D01*
X-5250969Y+7466244D02*
X-5235094Y+7481484D01*
X-5187469Y+7481484D01*
X-5171594Y+7466244D01*
X-5171594Y+7451004D01*
X-5187469Y+7435764D01*
X-5235094Y+7435764D01*
X-5250969Y+7420524D01*
X-5250969Y+7390044D01*
X-5171594Y+7390044D01*
X-5139844Y+7390044D02*
X-5139844Y+7451004D01*
X-5139844Y+7435764D02*
X-5123969Y+7451004D01*
X-5092219Y+7420524D01*
X-5060469Y+7451004D01*
X-5044594Y+7435764D01*
X-5044594Y+7390044D01*
X-5012844Y+7390044D02*
X-5012844Y+7451004D01*
X-5012844Y+7435764D02*
X-4996969Y+7451004D01*
X-4965219Y+7420524D01*
X-4933469Y+7451004D01*
X-4917594Y+7435764D01*
X-4917594Y+7390044D01*
X+519656Y+7199404D02*
X+519656Y-370596D01*
X+519656Y+7199404D02*
X+392656Y+7072404D01*
X+519656Y+7199404D02*
X+646656Y+7072404D01*
X+519656Y-370596D02*
X+646656Y-243596D01*
X+519656Y-370596D02*
X+392656Y-243596D01*
X+551406Y+3414404D02*
X+551297Y+3417038D01*
X+550407Y+3422307D01*
X+548545Y+3427576D01*
X+545502Y+3432845D01*
X+540847Y+3438047D01*
X+535578Y+3441873D01*
X+530309Y+3444313D01*
X+525040Y+3445694D01*
X+519771Y+3446154D01*
X+519656Y+3446154D01*
X+487906Y+3414404D02*
X+488015Y+3417038D01*
X+488905Y+3422307D01*
X+490767Y+3427576D01*
X+493810Y+3432845D01*
X+498465Y+3438047D01*
X+503734Y+3441873D01*
X+509003Y+3444313D01*
X+514272Y+3445694D01*
X+519541Y+3446154D01*
X+519656Y+3446154D01*
X+487906Y+3414404D02*
X+488015Y+3411770D01*
X+488905Y+3406501D01*
X+490767Y+3401232D01*
X+493810Y+3395963D01*
X+498465Y+3390761D01*
X+503734Y+3386935D01*
X+509003Y+3384495D01*
X+514272Y+3383114D01*
X+519541Y+3382654D01*
X+519656Y+3382654D01*
X+551406Y+3414404D02*
X+551297Y+3411770D01*
X+550407Y+3406501D01*
X+548545Y+3401232D01*
X+545502Y+3395963D01*
X+540847Y+3390761D01*
X+535578Y+3386935D01*
X+530309Y+3384495D01*
X+525040Y+3383114D01*
X+519771Y+3382654D01*
X+519656Y+3382654D01*
X+651736Y+3779529D02*
X+651736Y+3700154D01*
X+636496Y+3700154D01*
X+560296Y+3779529D01*
X+651736Y+3573154D02*
X+651736Y+3652529D01*
X+621256Y+3652529D01*
X+621256Y+3589029D01*
X+606016Y+3573154D01*
X+575536Y+3573154D01*
X+560296Y+3589029D01*
X+560296Y+3636654D01*
X+575536Y+3652529D01*
X+575536Y+3493779D02*
X+575536Y+3477904D01*
X+560296Y+3477904D01*
X+560296Y+3493779D01*
X+575536Y+3493779D01*
X+651736Y+3398529D02*
X+651736Y+3319154D01*
X+636496Y+3319154D01*
X+560296Y+3398529D01*
X+560296Y+3287404D02*
X+621256Y+3287404D01*
X+606016Y+3287404D02*
X+621256Y+3271529D01*
X+590776Y+3239779D01*
X+621256Y+3208029D01*
X+606016Y+3192154D01*
X+560296Y+3192154D01*
X+560296Y+3160404D02*
X+621256Y+3160404D01*
X+606016Y+3160404D02*
X+621256Y+3144529D01*
X+590776Y+3112779D01*
X+621256Y+3081029D01*
X+606016Y+3065154D01*
X+560296Y+3065154D01*
M02*
