<?xml version="1.0" encoding="UTF-8" standalone="no"?>
<svg width="123.71mm" height="80.81mm"
 viewBox="0 0 12371 8081"
 xmlns="http://www.w3.org/2000/svg" xmlns:xlink="http://www.w3.org/1999/xlink"  version="1.2" baseProfile="tiny">
<title>Proteus Design Suite SVG export</title>
<desc>Created by Proteus Design Suite</desc>
<defs>
</defs>
<g fill="none" stroke="black" stroke-width="1" fill-rule="evenodd" stroke-linecap="square" stroke-linejoin="bevel" >

<g fill="#ffffff" fill-opacity="1" stroke="none" transform="matrix(1,0,0,1,0,0)"
font-family="MS Shell Dlg 2" font-size="291.042" font-weight="400" font-style="normal" 
>
<path vector-effect="non-scaling-stroke" fill-rule="evenodd" d="M0,0 L12371,0 L12371,8081 L0,8081 L0,0"/>
</g>

<g fill="#000000" fill-opacity="1" stroke="none" transform="matrix(1,0,0,1,0,0)"
font-family="MS Shell Dlg 2" font-size="291.042" font-weight="400" font-style="normal" 
>
<path vector-effect="non-scaling-stroke" fill-rule="evenodd" d="M4957,4083 L5083,4083 L5083,4209 L4957,4209 L4957,4083"/>
</g>

<g fill="#ffffff" fill-opacity="1" stroke="none" transform="matrix(1,0,0,1,0,0)"
font-family="MS Shell Dlg 2" font-size="291.042" font-weight="400" font-style="normal" 
>
<path vector-effect="non-scaling-stroke" fill-rule="evenodd" d="M5058,4146 C5058,4166.99 5040.99,4184 5020,4184 C4999.01,4184 4982,4166.99 4982,4146 C4982,4125.01 4999.01,4108 5020,4108 C5040.99,4108 5058,4125.01 5058,4146 "/>
</g>

<g fill="#000000" fill-opacity="1" stroke="none" transform="matrix(1,0,0,1,0,0)"
font-family="MS Shell Dlg 2" font-size="291.042" font-weight="400" font-style="normal" 
>
<path vector-effect="non-scaling-stroke" fill-rule="evenodd" d="M5337,4146 C5337,4180.79 5308.79,4209 5274,4209 C5239.21,4209 5211,4180.79 5211,4146 C5211,4111.21 5239.21,4083 5274,4083 C5308.79,4083 5337,4111.21 5337,4146 "/>
</g>

<g fill="#ffffff" fill-opacity="1" stroke="none" transform="matrix(1,0,0,1,0,0)"
font-family="MS Shell Dlg 2" font-size="291.042" font-weight="400" font-style="normal" 
>
<path vector-effect="non-scaling-stroke" fill-rule="evenodd" d="M5312,4146 C5312,4166.99 5294.99,4184 5274,4184 C5253.01,4184 5236,4166.99 5236,4146 C5236,4125.01 5253.01,4108 5274,4108 C5294.99,4108 5312,4125.01 5312,4146 "/>
</g>

<g fill="#000000" fill-opacity="1" stroke="none" transform="matrix(1,0,0,1,0,0)"
font-family="MS Shell Dlg 2" font-size="291.042" font-weight="400" font-style="normal" 
>
<path vector-effect="non-scaling-stroke" fill-rule="evenodd" d="M5591,4146 C5591,4180.79 5562.79,4209 5528,4209 C5493.21,4209 5465,4180.79 5465,4146 C5465,4111.21 5493.21,4083 5528,4083 C5562.79,4083 5591,4111.21 5591,4146 "/>
</g>

<g fill="#ffffff" fill-opacity="1" stroke="none" transform="matrix(1,0,0,1,0,0)"
font-family="MS Shell Dlg 2" font-size="291.042" font-weight="400" font-style="normal" 
>
<path vector-effect="non-scaling-stroke" fill-rule="evenodd" d="M5566,4146 C5566,4166.99 5548.99,4184 5528,4184 C5507.01,4184 5490,4166.99 5490,4146 C5490,4125.01 5507.01,4108 5528,4108 C5548.99,4108 5566,4125.01 5566,4146 "/>
</g>

<g fill="#000000" fill-opacity="1" stroke="none" transform="matrix(1,0,0,1,0,0)"
font-family="MS Shell Dlg 2" font-size="291.042" font-weight="400" font-style="normal" 
>
<path vector-effect="non-scaling-stroke" fill-rule="evenodd" d="M5845,4146 C5845,4180.79 5816.79,4209 5782,4209 C5747.21,4209 5719,4180.79 5719,4146 C5719,4111.21 5747.21,4083 5782,4083 C5816.79,4083 5845,4111.21 5845,4146 "/>
</g>

<g fill="#ffffff" fill-opacity="1" stroke="none" transform="matrix(1,0,0,1,0,0)"
font-family="MS Shell Dlg 2" font-size="291.042" font-weight="400" font-style="normal" 
>
<path vector-effect="non-scaling-stroke" fill-rule="evenodd" d="M5820,4146 C5820,4166.99 5802.99,4184 5782,4184 C5761.01,4184 5744,4166.99 5744,4146 C5744,4125.01 5761.01,4108 5782,4108 C5802.99,4108 5820,4125.01 5820,4146 "/>
</g>

<g fill="#000000" fill-opacity="1" stroke="none" transform="matrix(1,0,0,1,0,0)"
font-family="MS Shell Dlg 2" font-size="291.042" font-weight="400" font-style="normal" 
>
<path vector-effect="non-scaling-stroke" fill-rule="evenodd" d="M6099,4146 C6099,4180.79 6070.79,4209 6036,4209 C6001.21,4209 5973,4180.79 5973,4146 C5973,4111.21 6001.21,4083 6036,4083 C6070.79,4083 6099,4111.21 6099,4146 "/>
</g>

<g fill="#ffffff" fill-opacity="1" stroke="none" transform="matrix(1,0,0,1,0,0)"
font-family="MS Shell Dlg 2" font-size="291.042" font-weight="400" font-style="normal" 
>
<path vector-effect="non-scaling-stroke" fill-rule="evenodd" d="M6074,4146 C6074,4166.99 6056.99,4184 6036,4184 C6015.01,4184 5998,4166.99 5998,4146 C5998,4125.01 6015.01,4108 6036,4108 C6056.99,4108 6074,4125.01 6074,4146 "/>
</g>

<g fill="#000000" fill-opacity="1" stroke="none" transform="matrix(1,0,0,1,0,0)"
font-family="MS Shell Dlg 2" font-size="291.042" font-weight="400" font-style="normal" 
>
<path vector-effect="non-scaling-stroke" fill-rule="evenodd" d="M6353,4146 C6353,4180.79 6324.79,4209 6290,4209 C6255.21,4209 6227,4180.79 6227,4146 C6227,4111.21 6255.21,4083 6290,4083 C6324.79,4083 6353,4111.21 6353,4146 "/>
</g>

<g fill="#ffffff" fill-opacity="1" stroke="none" transform="matrix(1,0,0,1,0,0)"
font-family="MS Shell Dlg 2" font-size="291.042" font-weight="400" font-style="normal" 
>
<path vector-effect="non-scaling-stroke" fill-rule="evenodd" d="M6328,4146 C6328,4166.99 6310.99,4184 6290,4184 C6269.01,4184 6252,4166.99 6252,4146 C6252,4125.01 6269.01,4108 6290,4108 C6310.99,4108 6328,4125.01 6328,4146 "/>
</g>

<g fill="#000000" fill-opacity="1" stroke="none" transform="matrix(1,0,0,1,0,0)"
font-family="MS Shell Dlg 2" font-size="291.042" font-weight="400" font-style="normal" 
>
<path vector-effect="non-scaling-stroke" fill-rule="evenodd" d="M6607,4146 C6607,4180.79 6578.79,4209 6544,4209 C6509.21,4209 6481,4180.79 6481,4146 C6481,4111.21 6509.21,4083 6544,4083 C6578.79,4083 6607,4111.21 6607,4146 "/>
</g>

<g fill="#ffffff" fill-opacity="1" stroke="none" transform="matrix(1,0,0,1,0,0)"
font-family="MS Shell Dlg 2" font-size="291.042" font-weight="400" font-style="normal" 
>
<path vector-effect="non-scaling-stroke" fill-rule="evenodd" d="M6582,4146 C6582,4166.99 6564.99,4184 6544,4184 C6523.01,4184 6506,4166.99 6506,4146 C6506,4125.01 6523.01,4108 6544,4108 C6564.99,4108 6582,4125.01 6582,4146 "/>
</g>

<g fill="#000000" fill-opacity="1" stroke="none" transform="matrix(1,0,0,1,0,0)"
font-family="MS Shell Dlg 2" font-size="291.042" font-weight="400" font-style="normal" 
>
<path vector-effect="non-scaling-stroke" fill-rule="evenodd" d="M6861,4146 C6861,4180.79 6832.79,4209 6798,4209 C6763.21,4209 6735,4180.79 6735,4146 C6735,4111.21 6763.21,4083 6798,4083 C6832.79,4083 6861,4111.21 6861,4146 "/>
</g>

<g fill="#ffffff" fill-opacity="1" stroke="none" transform="matrix(1,0,0,1,0,0)"
font-family="MS Shell Dlg 2" font-size="291.042" font-weight="400" font-style="normal" 
>
<path vector-effect="non-scaling-stroke" fill-rule="evenodd" d="M6836,4146 C6836,4166.99 6818.99,4184 6798,4184 C6777.01,4184 6760,4166.99 6760,4146 C6760,4125.01 6777.01,4108 6798,4108 C6818.99,4108 6836,4125.01 6836,4146 "/>
</g>

<g fill="#000000" fill-opacity="1" stroke="none" transform="matrix(1,0,0,1,0,0)"
font-family="MS Shell Dlg 2" font-size="291.042" font-weight="400" font-style="normal" 
>
<path vector-effect="non-scaling-stroke" fill-rule="evenodd" d="M6861,3384 C6861,3418.79 6832.79,3447 6798,3447 C6763.21,3447 6735,3418.79 6735,3384 C6735,3349.21 6763.21,3321 6798,3321 C6832.79,3321 6861,3349.21 6861,3384 "/>
</g>

<g fill="#ffffff" fill-opacity="1" stroke="none" transform="matrix(1,0,0,1,0,0)"
font-family="MS Shell Dlg 2" font-size="291.042" font-weight="400" font-style="normal" 
>
<path vector-effect="non-scaling-stroke" fill-rule="evenodd" d="M6836,3384 C6836,3404.99 6818.99,3422 6798,3422 C6777.01,3422 6760,3404.99 6760,3384 C6760,3363.01 6777.01,3346 6798,3346 C6818.99,3346 6836,3363.01 6836,3384 "/>
</g>

<g fill="#000000" fill-opacity="1" stroke="none" transform="matrix(1,0,0,1,0,0)"
font-family="MS Shell Dlg 2" font-size="291.042" font-weight="400" font-style="normal" 
>
<path vector-effect="non-scaling-stroke" fill-rule="evenodd" d="M6607,3384 C6607,3418.79 6578.79,3447 6544,3447 C6509.21,3447 6481,3418.79 6481,3384 C6481,3349.21 6509.21,3321 6544,3321 C6578.79,3321 6607,3349.21 6607,3384 "/>
</g>

<g fill="#ffffff" fill-opacity="1" stroke="none" transform="matrix(1,0,0,1,0,0)"
font-family="MS Shell Dlg 2" font-size="291.042" font-weight="400" font-style="normal" 
>
<path vector-effect="non-scaling-stroke" fill-rule="evenodd" d="M6582,3384 C6582,3404.99 6564.99,3422 6544,3422 C6523.01,3422 6506,3404.99 6506,3384 C6506,3363.01 6523.01,3346 6544,3346 C6564.99,3346 6582,3363.01 6582,3384 "/>
</g>

<g fill="#000000" fill-opacity="1" stroke="none" transform="matrix(1,0,0,1,0,0)"
font-family="MS Shell Dlg 2" font-size="291.042" font-weight="400" font-style="normal" 
>
<path vector-effect="non-scaling-stroke" fill-rule="evenodd" d="M6353,3384 C6353,3418.79 6324.79,3447 6290,3447 C6255.21,3447 6227,3418.79 6227,3384 C6227,3349.21 6255.21,3321 6290,3321 C6324.79,3321 6353,3349.21 6353,3384 "/>
</g>

<g fill="#ffffff" fill-opacity="1" stroke="none" transform="matrix(1,0,0,1,0,0)"
font-family="MS Shell Dlg 2" font-size="291.042" font-weight="400" font-style="normal" 
>
<path vector-effect="non-scaling-stroke" fill-rule="evenodd" d="M6328,3384 C6328,3404.99 6310.99,3422 6290,3422 C6269.01,3422 6252,3404.99 6252,3384 C6252,3363.01 6269.01,3346 6290,3346 C6310.99,3346 6328,3363.01 6328,3384 "/>
</g>

<g fill="#000000" fill-opacity="1" stroke="none" transform="matrix(1,0,0,1,0,0)"
font-family="MS Shell Dlg 2" font-size="291.042" font-weight="400" font-style="normal" 
>
<path vector-effect="non-scaling-stroke" fill-rule="evenodd" d="M6099,3384 C6099,3418.79 6070.79,3447 6036,3447 C6001.21,3447 5973,3418.79 5973,3384 C5973,3349.21 6001.21,3321 6036,3321 C6070.79,3321 6099,3349.21 6099,3384 "/>
</g>

<g fill="#ffffff" fill-opacity="1" stroke="none" transform="matrix(1,0,0,1,0,0)"
font-family="MS Shell Dlg 2" font-size="291.042" font-weight="400" font-style="normal" 
>
<path vector-effect="non-scaling-stroke" fill-rule="evenodd" d="M6074,3384 C6074,3404.99 6056.99,3422 6036,3422 C6015.01,3422 5998,3404.99 5998,3384 C5998,3363.01 6015.01,3346 6036,3346 C6056.99,3346 6074,3363.01 6074,3384 "/>
</g>

<g fill="#000000" fill-opacity="1" stroke="none" transform="matrix(1,0,0,1,0,0)"
font-family="MS Shell Dlg 2" font-size="291.042" font-weight="400" font-style="normal" 
>
<path vector-effect="non-scaling-stroke" fill-rule="evenodd" d="M5845,3384 C5845,3418.79 5816.79,3447 5782,3447 C5747.21,3447 5719,3418.79 5719,3384 C5719,3349.21 5747.21,3321 5782,3321 C5816.79,3321 5845,3349.21 5845,3384 "/>
</g>

<g fill="#ffffff" fill-opacity="1" stroke="none" transform="matrix(1,0,0,1,0,0)"
font-family="MS Shell Dlg 2" font-size="291.042" font-weight="400" font-style="normal" 
>
<path vector-effect="non-scaling-stroke" fill-rule="evenodd" d="M5820,3384 C5820,3404.99 5802.99,3422 5782,3422 C5761.01,3422 5744,3404.99 5744,3384 C5744,3363.01 5761.01,3346 5782,3346 C5802.99,3346 5820,3363.01 5820,3384 "/>
</g>

<g fill="#000000" fill-opacity="1" stroke="none" transform="matrix(1,0,0,1,0,0)"
font-family="MS Shell Dlg 2" font-size="291.042" font-weight="400" font-style="normal" 
>
<path vector-effect="non-scaling-stroke" fill-rule="evenodd" d="M5591,3384 C5591,3418.79 5562.79,3447 5528,3447 C5493.21,3447 5465,3418.79 5465,3384 C5465,3349.21 5493.21,3321 5528,3321 C5562.79,3321 5591,3349.21 5591,3384 "/>
</g>

<g fill="#ffffff" fill-opacity="1" stroke="none" transform="matrix(1,0,0,1,0,0)"
font-family="MS Shell Dlg 2" font-size="291.042" font-weight="400" font-style="normal" 
>
<path vector-effect="non-scaling-stroke" fill-rule="evenodd" d="M5566,3384 C5566,3404.99 5548.99,3422 5528,3422 C5507.01,3422 5490,3404.99 5490,3384 C5490,3363.01 5507.01,3346 5528,3346 C5548.99,3346 5566,3363.01 5566,3384 "/>
</g>

<g fill="#000000" fill-opacity="1" stroke="none" transform="matrix(1,0,0,1,0,0)"
font-family="MS Shell Dlg 2" font-size="291.042" font-weight="400" font-style="normal" 
>
<path vector-effect="non-scaling-stroke" fill-rule="evenodd" d="M5337,3384 C5337,3418.79 5308.79,3447 5274,3447 C5239.21,3447 5211,3418.79 5211,3384 C5211,3349.21 5239.21,3321 5274,3321 C5308.79,3321 5337,3349.21 5337,3384 "/>
</g>

<g fill="#ffffff" fill-opacity="1" stroke="none" transform="matrix(1,0,0,1,0,0)"
font-family="MS Shell Dlg 2" font-size="291.042" font-weight="400" font-style="normal" 
>
<path vector-effect="non-scaling-stroke" fill-rule="evenodd" d="M5312,3384 C5312,3404.99 5294.99,3422 5274,3422 C5253.01,3422 5236,3404.99 5236,3384 C5236,3363.01 5253.01,3346 5274,3346 C5294.99,3346 5312,3363.01 5312,3384 "/>
</g>

<g fill="#000000" fill-opacity="1" stroke="none" transform="matrix(1,0,0,1,0,0)"
font-family="MS Shell Dlg 2" font-size="291.042" font-weight="400" font-style="normal" 
>
<path vector-effect="non-scaling-stroke" fill-rule="evenodd" d="M5083,3384 C5083,3418.79 5054.79,3447 5020,3447 C4985.21,3447 4957,3418.79 4957,3384 C4957,3349.21 4985.21,3321 5020,3321 C5054.79,3321 5083,3349.21 5083,3384 "/>
</g>

<g fill="#ffffff" fill-opacity="1" stroke="none" transform="matrix(1,0,0,1,0,0)"
font-family="MS Shell Dlg 2" font-size="291.042" font-weight="400" font-style="normal" 
>
<path vector-effect="non-scaling-stroke" fill-rule="evenodd" d="M5058,3384 C5058,3404.99 5040.99,3422 5020,3422 C4999.01,3422 4982,3404.99 4982,3384 C4982,3363.01 4999.01,3346 5020,3346 C5040.99,3346 5058,3363.01 5058,3384 "/>
</g>

<g fill="#000000" fill-opacity="1" stroke="none" transform="matrix(1,0,0,1,0,0)"
font-family="MS Shell Dlg 2" font-size="291.042" font-weight="400" font-style="normal" 
>
<path vector-effect="non-scaling-stroke" fill-rule="evenodd" d="M4007,5582 L4133,5582 L4133,5708 L4007,5708 L4007,5582"/>
</g>

<g fill="#ffffff" fill-opacity="1" stroke="none" transform="matrix(1,0,0,1,0,0)"
font-family="MS Shell Dlg 2" font-size="291.042" font-weight="400" font-style="normal" 
>
<path vector-effect="non-scaling-stroke" fill-rule="evenodd" d="M4108,5645 C4108,5665.99 4090.99,5683 4070,5683 C4049.01,5683 4032,5665.99 4032,5645 C4032,5624.01 4049.01,5607 4070,5607 C4090.99,5607 4108,5624.01 4108,5645 "/>
</g>

<g fill="#000000" fill-opacity="1" stroke="none" transform="matrix(1,0,0,1,0,0)"
font-family="MS Shell Dlg 2" font-size="291.042" font-weight="400" font-style="normal" 
>
<path vector-effect="non-scaling-stroke" fill-rule="evenodd" d="M4387,5645 C4387,5679.79 4358.79,5708 4324,5708 C4289.21,5708 4261,5679.79 4261,5645 C4261,5610.21 4289.21,5582 4324,5582 C4358.79,5582 4387,5610.21 4387,5645 "/>
</g>

<g fill="#ffffff" fill-opacity="1" stroke="none" transform="matrix(1,0,0,1,0,0)"
font-family="MS Shell Dlg 2" font-size="291.042" font-weight="400" font-style="normal" 
>
<path vector-effect="non-scaling-stroke" fill-rule="evenodd" d="M4362,5645 C4362,5665.99 4344.99,5683 4324,5683 C4303.01,5683 4286,5665.99 4286,5645 C4286,5624.01 4303.01,5607 4324,5607 C4344.99,5607 4362,5624.01 4362,5645 "/>
</g>

<g fill="#000000" fill-opacity="1" stroke="none" transform="matrix(1,0,0,1,0,0)"
font-family="MS Shell Dlg 2" font-size="291.042" font-weight="400" font-style="normal" 
>
<path vector-effect="non-scaling-stroke" fill-rule="evenodd" d="M4641,5645 C4641,5679.79 4612.79,5708 4578,5708 C4543.21,5708 4515,5679.79 4515,5645 C4515,5610.21 4543.21,5582 4578,5582 C4612.79,5582 4641,5610.21 4641,5645 "/>
</g>

<g fill="#ffffff" fill-opacity="1" stroke="none" transform="matrix(1,0,0,1,0,0)"
font-family="MS Shell Dlg 2" font-size="291.042" font-weight="400" font-style="normal" 
>
<path vector-effect="non-scaling-stroke" fill-rule="evenodd" d="M4616,5645 C4616,5665.99 4598.99,5683 4578,5683 C4557.01,5683 4540,5665.99 4540,5645 C4540,5624.01 4557.01,5607 4578,5607 C4598.99,5607 4616,5624.01 4616,5645 "/>
</g>

<g fill="#000000" fill-opacity="1" stroke="none" transform="matrix(1,0,0,1,0,0)"
font-family="MS Shell Dlg 2" font-size="291.042" font-weight="400" font-style="normal" 
>
<path vector-effect="non-scaling-stroke" fill-rule="evenodd" d="M4895,5645 C4895,5679.79 4866.79,5708 4832,5708 C4797.21,5708 4769,5679.79 4769,5645 C4769,5610.21 4797.21,5582 4832,5582 C4866.79,5582 4895,5610.21 4895,5645 "/>
</g>

<g fill="#ffffff" fill-opacity="1" stroke="none" transform="matrix(1,0,0,1,0,0)"
font-family="MS Shell Dlg 2" font-size="291.042" font-weight="400" font-style="normal" 
>
<path vector-effect="non-scaling-stroke" fill-rule="evenodd" d="M4870,5645 C4870,5665.99 4852.99,5683 4832,5683 C4811.01,5683 4794,5665.99 4794,5645 C4794,5624.01 4811.01,5607 4832,5607 C4852.99,5607 4870,5624.01 4870,5645 "/>
</g>

<g fill="#000000" fill-opacity="1" stroke="none" transform="matrix(1,0,0,1,0,0)"
font-family="MS Shell Dlg 2" font-size="291.042" font-weight="400" font-style="normal" 
>
<path vector-effect="non-scaling-stroke" fill-rule="evenodd" d="M5149,5645 C5149,5679.79 5120.79,5708 5086,5708 C5051.21,5708 5023,5679.79 5023,5645 C5023,5610.21 5051.21,5582 5086,5582 C5120.79,5582 5149,5610.21 5149,5645 "/>
</g>

<g fill="#ffffff" fill-opacity="1" stroke="none" transform="matrix(1,0,0,1,0,0)"
font-family="MS Shell Dlg 2" font-size="291.042" font-weight="400" font-style="normal" 
>
<path vector-effect="non-scaling-stroke" fill-rule="evenodd" d="M5124,5645 C5124,5665.99 5106.99,5683 5086,5683 C5065.01,5683 5048,5665.99 5048,5645 C5048,5624.01 5065.01,5607 5086,5607 C5106.99,5607 5124,5624.01 5124,5645 "/>
</g>

<g fill="#000000" fill-opacity="1" stroke="none" transform="matrix(1,0,0,1,0,0)"
font-family="MS Shell Dlg 2" font-size="291.042" font-weight="400" font-style="normal" 
>
<path vector-effect="non-scaling-stroke" fill-rule="evenodd" d="M5403,5645 C5403,5679.79 5374.79,5708 5340,5708 C5305.21,5708 5277,5679.79 5277,5645 C5277,5610.21 5305.21,5582 5340,5582 C5374.79,5582 5403,5610.21 5403,5645 "/>
</g>

<g fill="#ffffff" fill-opacity="1" stroke="none" transform="matrix(1,0,0,1,0,0)"
font-family="MS Shell Dlg 2" font-size="291.042" font-weight="400" font-style="normal" 
>
<path vector-effect="non-scaling-stroke" fill-rule="evenodd" d="M5378,5645 C5378,5665.99 5360.99,5683 5340,5683 C5319.01,5683 5302,5665.99 5302,5645 C5302,5624.01 5319.01,5607 5340,5607 C5360.99,5607 5378,5624.01 5378,5645 "/>
</g>

<g fill="#000000" fill-opacity="1" stroke="none" transform="matrix(1,0,0,1,0,0)"
font-family="MS Shell Dlg 2" font-size="291.042" font-weight="400" font-style="normal" 
>
<path vector-effect="non-scaling-stroke" fill-rule="evenodd" d="M5657,5645 C5657,5679.79 5628.79,5708 5594,5708 C5559.21,5708 5531,5679.79 5531,5645 C5531,5610.21 5559.21,5582 5594,5582 C5628.79,5582 5657,5610.21 5657,5645 "/>
</g>

<g fill="#ffffff" fill-opacity="1" stroke="none" transform="matrix(1,0,0,1,0,0)"
font-family="MS Shell Dlg 2" font-size="291.042" font-weight="400" font-style="normal" 
>
<path vector-effect="non-scaling-stroke" fill-rule="evenodd" d="M5632,5645 C5632,5665.99 5614.99,5683 5594,5683 C5573.01,5683 5556,5665.99 5556,5645 C5556,5624.01 5573.01,5607 5594,5607 C5614.99,5607 5632,5624.01 5632,5645 "/>
</g>

<g fill="#000000" fill-opacity="1" stroke="none" transform="matrix(1,0,0,1,0,0)"
font-family="MS Shell Dlg 2" font-size="291.042" font-weight="400" font-style="normal" 
>
<path vector-effect="non-scaling-stroke" fill-rule="evenodd" d="M5911,5645 C5911,5679.79 5882.79,5708 5848,5708 C5813.21,5708 5785,5679.79 5785,5645 C5785,5610.21 5813.21,5582 5848,5582 C5882.79,5582 5911,5610.21 5911,5645 "/>
</g>

<g fill="#ffffff" fill-opacity="1" stroke="none" transform="matrix(1,0,0,1,0,0)"
font-family="MS Shell Dlg 2" font-size="291.042" font-weight="400" font-style="normal" 
>
<path vector-effect="non-scaling-stroke" fill-rule="evenodd" d="M5886,5645 C5886,5665.99 5868.99,5683 5848,5683 C5827.01,5683 5810,5665.99 5810,5645 C5810,5624.01 5827.01,5607 5848,5607 C5868.99,5607 5886,5624.01 5886,5645 "/>
</g>

<g fill="#000000" fill-opacity="1" stroke="none" transform="matrix(1,0,0,1,0,0)"
font-family="MS Shell Dlg 2" font-size="291.042" font-weight="400" font-style="normal" 
>
<path vector-effect="non-scaling-stroke" fill-rule="evenodd" d="M6165,5645 C6165,5679.79 6136.79,5708 6102,5708 C6067.21,5708 6039,5679.79 6039,5645 C6039,5610.21 6067.21,5582 6102,5582 C6136.79,5582 6165,5610.21 6165,5645 "/>
</g>

<g fill="#ffffff" fill-opacity="1" stroke="none" transform="matrix(1,0,0,1,0,0)"
font-family="MS Shell Dlg 2" font-size="291.042" font-weight="400" font-style="normal" 
>
<path vector-effect="non-scaling-stroke" fill-rule="evenodd" d="M6140,5645 C6140,5665.99 6122.99,5683 6102,5683 C6081.01,5683 6064,5665.99 6064,5645 C6064,5624.01 6081.01,5607 6102,5607 C6122.99,5607 6140,5624.01 6140,5645 "/>
</g>

<g fill="#000000" fill-opacity="1" stroke="none" transform="matrix(1,0,0,1,0,0)"
font-family="MS Shell Dlg 2" font-size="291.042" font-weight="400" font-style="normal" 
>
<path vector-effect="non-scaling-stroke" fill-rule="evenodd" d="M6419,5645 C6419,5679.79 6390.79,5708 6356,5708 C6321.21,5708 6293,5679.79 6293,5645 C6293,5610.21 6321.21,5582 6356,5582 C6390.79,5582 6419,5610.21 6419,5645 "/>
</g>

<g fill="#ffffff" fill-opacity="1" stroke="none" transform="matrix(1,0,0,1,0,0)"
font-family="MS Shell Dlg 2" font-size="291.042" font-weight="400" font-style="normal" 
>
<path vector-effect="non-scaling-stroke" fill-rule="evenodd" d="M6394,5645 C6394,5665.99 6376.99,5683 6356,5683 C6335.01,5683 6318,5665.99 6318,5645 C6318,5624.01 6335.01,5607 6356,5607 C6376.99,5607 6394,5624.01 6394,5645 "/>
</g>

<g fill="#000000" fill-opacity="1" stroke="none" transform="matrix(1,0,0,1,0,0)"
font-family="MS Shell Dlg 2" font-size="291.042" font-weight="400" font-style="normal" 
>
<path vector-effect="non-scaling-stroke" fill-rule="evenodd" d="M6673,5645 C6673,5679.79 6644.79,5708 6610,5708 C6575.21,5708 6547,5679.79 6547,5645 C6547,5610.21 6575.21,5582 6610,5582 C6644.79,5582 6673,5610.21 6673,5645 "/>
</g>

<g fill="#ffffff" fill-opacity="1" stroke="none" transform="matrix(1,0,0,1,0,0)"
font-family="MS Shell Dlg 2" font-size="291.042" font-weight="400" font-style="normal" 
>
<path vector-effect="non-scaling-stroke" fill-rule="evenodd" d="M6648,5645 C6648,5665.99 6630.99,5683 6610,5683 C6589.01,5683 6572,5665.99 6572,5645 C6572,5624.01 6589.01,5607 6610,5607 C6630.99,5607 6648,5624.01 6648,5645 "/>
</g>

<g fill="#000000" fill-opacity="1" stroke="none" transform="matrix(1,0,0,1,0,0)"
font-family="MS Shell Dlg 2" font-size="291.042" font-weight="400" font-style="normal" 
>
<path vector-effect="non-scaling-stroke" fill-rule="evenodd" d="M6927,5645 C6927,5679.79 6898.79,5708 6864,5708 C6829.21,5708 6801,5679.79 6801,5645 C6801,5610.21 6829.21,5582 6864,5582 C6898.79,5582 6927,5610.21 6927,5645 "/>
</g>

<g fill="#ffffff" fill-opacity="1" stroke="none" transform="matrix(1,0,0,1,0,0)"
font-family="MS Shell Dlg 2" font-size="291.042" font-weight="400" font-style="normal" 
>
<path vector-effect="non-scaling-stroke" fill-rule="evenodd" d="M6902,5645 C6902,5665.99 6884.99,5683 6864,5683 C6843.01,5683 6826,5665.99 6826,5645 C6826,5624.01 6843.01,5607 6864,5607 C6884.99,5607 6902,5624.01 6902,5645 "/>
</g>

<g fill="#000000" fill-opacity="1" stroke="none" transform="matrix(1,0,0,1,0,0)"
font-family="MS Shell Dlg 2" font-size="291.042" font-weight="400" font-style="normal" 
>
<path vector-effect="non-scaling-stroke" fill-rule="evenodd" d="M7181,5645 C7181,5679.79 7152.79,5708 7118,5708 C7083.21,5708 7055,5679.79 7055,5645 C7055,5610.21 7083.21,5582 7118,5582 C7152.79,5582 7181,5610.21 7181,5645 "/>
</g>

<g fill="#ffffff" fill-opacity="1" stroke="none" transform="matrix(1,0,0,1,0,0)"
font-family="MS Shell Dlg 2" font-size="291.042" font-weight="400" font-style="normal" 
>
<path vector-effect="non-scaling-stroke" fill-rule="evenodd" d="M7156,5645 C7156,5665.99 7138.99,5683 7118,5683 C7097.01,5683 7080,5665.99 7080,5645 C7080,5624.01 7097.01,5607 7118,5607 C7138.99,5607 7156,5624.01 7156,5645 "/>
</g>

<g fill="#000000" fill-opacity="1" stroke="none" transform="matrix(1,0,0,1,0,0)"
font-family="MS Shell Dlg 2" font-size="291.042" font-weight="400" font-style="normal" 
>
<path vector-effect="non-scaling-stroke" fill-rule="evenodd" d="M7435,5645 C7435,5679.79 7406.79,5708 7372,5708 C7337.21,5708 7309,5679.79 7309,5645 C7309,5610.21 7337.21,5582 7372,5582 C7406.79,5582 7435,5610.21 7435,5645 "/>
</g>

<g fill="#ffffff" fill-opacity="1" stroke="none" transform="matrix(1,0,0,1,0,0)"
font-family="MS Shell Dlg 2" font-size="291.042" font-weight="400" font-style="normal" 
>
<path vector-effect="non-scaling-stroke" fill-rule="evenodd" d="M7410,5645 C7410,5665.99 7392.99,5683 7372,5683 C7351.01,5683 7334,5665.99 7334,5645 C7334,5624.01 7351.01,5607 7372,5607 C7392.99,5607 7410,5624.01 7410,5645 "/>
</g>

<g fill="#000000" fill-opacity="1" stroke="none" transform="matrix(1,0,0,1,0,0)"
font-family="MS Shell Dlg 2" font-size="291.042" font-weight="400" font-style="normal" 
>
<path vector-effect="non-scaling-stroke" fill-rule="evenodd" d="M7435,4883 C7435,4917.79 7406.79,4946 7372,4946 C7337.21,4946 7309,4917.79 7309,4883 C7309,4848.21 7337.21,4820 7372,4820 C7406.79,4820 7435,4848.21 7435,4883 "/>
</g>

<g fill="#ffffff" fill-opacity="1" stroke="none" transform="matrix(1,0,0,1,0,0)"
font-family="MS Shell Dlg 2" font-size="291.042" font-weight="400" font-style="normal" 
>
<path vector-effect="non-scaling-stroke" fill-rule="evenodd" d="M7410,4883 C7410,4903.99 7392.99,4921 7372,4921 C7351.01,4921 7334,4903.99 7334,4883 C7334,4862.01 7351.01,4845 7372,4845 C7392.99,4845 7410,4862.01 7410,4883 "/>
</g>

<g fill="#000000" fill-opacity="1" stroke="none" transform="matrix(1,0,0,1,0,0)"
font-family="MS Shell Dlg 2" font-size="291.042" font-weight="400" font-style="normal" 
>
<path vector-effect="non-scaling-stroke" fill-rule="evenodd" d="M7181,4883 C7181,4917.79 7152.79,4946 7118,4946 C7083.21,4946 7055,4917.79 7055,4883 C7055,4848.21 7083.21,4820 7118,4820 C7152.79,4820 7181,4848.21 7181,4883 "/>
</g>

<g fill="#ffffff" fill-opacity="1" stroke="none" transform="matrix(1,0,0,1,0,0)"
font-family="MS Shell Dlg 2" font-size="291.042" font-weight="400" font-style="normal" 
>
<path vector-effect="non-scaling-stroke" fill-rule="evenodd" d="M7156,4883 C7156,4903.99 7138.99,4921 7118,4921 C7097.01,4921 7080,4903.99 7080,4883 C7080,4862.01 7097.01,4845 7118,4845 C7138.99,4845 7156,4862.01 7156,4883 "/>
</g>

<g fill="#000000" fill-opacity="1" stroke="none" transform="matrix(1,0,0,1,0,0)"
font-family="MS Shell Dlg 2" font-size="291.042" font-weight="400" font-style="normal" 
>
<path vector-effect="non-scaling-stroke" fill-rule="evenodd" d="M6927,4883 C6927,4917.79 6898.79,4946 6864,4946 C6829.21,4946 6801,4917.79 6801,4883 C6801,4848.21 6829.21,4820 6864,4820 C6898.79,4820 6927,4848.21 6927,4883 "/>
</g>

<g fill="#ffffff" fill-opacity="1" stroke="none" transform="matrix(1,0,0,1,0,0)"
font-family="MS Shell Dlg 2" font-size="291.042" font-weight="400" font-style="normal" 
>
<path vector-effect="non-scaling-stroke" fill-rule="evenodd" d="M6902,4883 C6902,4903.99 6884.99,4921 6864,4921 C6843.01,4921 6826,4903.99 6826,4883 C6826,4862.01 6843.01,4845 6864,4845 C6884.99,4845 6902,4862.01 6902,4883 "/>
</g>

<g fill="#000000" fill-opacity="1" stroke="none" transform="matrix(1,0,0,1,0,0)"
font-family="MS Shell Dlg 2" font-size="291.042" font-weight="400" font-style="normal" 
>
<path vector-effect="non-scaling-stroke" fill-rule="evenodd" d="M6673,4883 C6673,4917.79 6644.79,4946 6610,4946 C6575.21,4946 6547,4917.79 6547,4883 C6547,4848.21 6575.21,4820 6610,4820 C6644.79,4820 6673,4848.21 6673,4883 "/>
</g>

<g fill="#ffffff" fill-opacity="1" stroke="none" transform="matrix(1,0,0,1,0,0)"
font-family="MS Shell Dlg 2" font-size="291.042" font-weight="400" font-style="normal" 
>
<path vector-effect="non-scaling-stroke" fill-rule="evenodd" d="M6648,4883 C6648,4903.99 6630.99,4921 6610,4921 C6589.01,4921 6572,4903.99 6572,4883 C6572,4862.01 6589.01,4845 6610,4845 C6630.99,4845 6648,4862.01 6648,4883 "/>
</g>

<g fill="#000000" fill-opacity="1" stroke="none" transform="matrix(1,0,0,1,0,0)"
font-family="MS Shell Dlg 2" font-size="291.042" font-weight="400" font-style="normal" 
>
<path vector-effect="non-scaling-stroke" fill-rule="evenodd" d="M6419,4883 C6419,4917.79 6390.79,4946 6356,4946 C6321.21,4946 6293,4917.79 6293,4883 C6293,4848.21 6321.21,4820 6356,4820 C6390.79,4820 6419,4848.21 6419,4883 "/>
</g>

<g fill="#ffffff" fill-opacity="1" stroke="none" transform="matrix(1,0,0,1,0,0)"
font-family="MS Shell Dlg 2" font-size="291.042" font-weight="400" font-style="normal" 
>
<path vector-effect="non-scaling-stroke" fill-rule="evenodd" d="M6394,4883 C6394,4903.99 6376.99,4921 6356,4921 C6335.01,4921 6318,4903.99 6318,4883 C6318,4862.01 6335.01,4845 6356,4845 C6376.99,4845 6394,4862.01 6394,4883 "/>
</g>

<g fill="#000000" fill-opacity="1" stroke="none" transform="matrix(1,0,0,1,0,0)"
font-family="MS Shell Dlg 2" font-size="291.042" font-weight="400" font-style="normal" 
>
<path vector-effect="non-scaling-stroke" fill-rule="evenodd" d="M6165,4883 C6165,4917.79 6136.79,4946 6102,4946 C6067.21,4946 6039,4917.79 6039,4883 C6039,4848.21 6067.21,4820 6102,4820 C6136.79,4820 6165,4848.21 6165,4883 "/>
</g>

<g fill="#ffffff" fill-opacity="1" stroke="none" transform="matrix(1,0,0,1,0,0)"
font-family="MS Shell Dlg 2" font-size="291.042" font-weight="400" font-style="normal" 
>
<path vector-effect="non-scaling-stroke" fill-rule="evenodd" d="M6140,4883 C6140,4903.99 6122.99,4921 6102,4921 C6081.01,4921 6064,4903.99 6064,4883 C6064,4862.01 6081.01,4845 6102,4845 C6122.99,4845 6140,4862.01 6140,4883 "/>
</g>

<g fill="#000000" fill-opacity="1" stroke="none" transform="matrix(1,0,0,1,0,0)"
font-family="MS Shell Dlg 2" font-size="291.042" font-weight="400" font-style="normal" 
>
<path vector-effect="non-scaling-stroke" fill-rule="evenodd" d="M5911,4883 C5911,4917.79 5882.79,4946 5848,4946 C5813.21,4946 5785,4917.79 5785,4883 C5785,4848.21 5813.21,4820 5848,4820 C5882.79,4820 5911,4848.21 5911,4883 "/>
</g>

<g fill="#ffffff" fill-opacity="1" stroke="none" transform="matrix(1,0,0,1,0,0)"
font-family="MS Shell Dlg 2" font-size="291.042" font-weight="400" font-style="normal" 
>
<path vector-effect="non-scaling-stroke" fill-rule="evenodd" d="M5886,4883 C5886,4903.99 5868.99,4921 5848,4921 C5827.01,4921 5810,4903.99 5810,4883 C5810,4862.01 5827.01,4845 5848,4845 C5868.99,4845 5886,4862.01 5886,4883 "/>
</g>

<g fill="#000000" fill-opacity="1" stroke="none" transform="matrix(1,0,0,1,0,0)"
font-family="MS Shell Dlg 2" font-size="291.042" font-weight="400" font-style="normal" 
>
<path vector-effect="non-scaling-stroke" fill-rule="evenodd" d="M5657,4883 C5657,4917.79 5628.79,4946 5594,4946 C5559.21,4946 5531,4917.79 5531,4883 C5531,4848.21 5559.21,4820 5594,4820 C5628.79,4820 5657,4848.21 5657,4883 "/>
</g>

<g fill="#ffffff" fill-opacity="1" stroke="none" transform="matrix(1,0,0,1,0,0)"
font-family="MS Shell Dlg 2" font-size="291.042" font-weight="400" font-style="normal" 
>
<path vector-effect="non-scaling-stroke" fill-rule="evenodd" d="M5632,4883 C5632,4903.99 5614.99,4921 5594,4921 C5573.01,4921 5556,4903.99 5556,4883 C5556,4862.01 5573.01,4845 5594,4845 C5614.99,4845 5632,4862.01 5632,4883 "/>
</g>

<g fill="#000000" fill-opacity="1" stroke="none" transform="matrix(1,0,0,1,0,0)"
font-family="MS Shell Dlg 2" font-size="291.042" font-weight="400" font-style="normal" 
>
<path vector-effect="non-scaling-stroke" fill-rule="evenodd" d="M5403,4883 C5403,4917.79 5374.79,4946 5340,4946 C5305.21,4946 5277,4917.79 5277,4883 C5277,4848.21 5305.21,4820 5340,4820 C5374.79,4820 5403,4848.21 5403,4883 "/>
</g>

<g fill="#ffffff" fill-opacity="1" stroke="none" transform="matrix(1,0,0,1,0,0)"
font-family="MS Shell Dlg 2" font-size="291.042" font-weight="400" font-style="normal" 
>
<path vector-effect="non-scaling-stroke" fill-rule="evenodd" d="M5378,4883 C5378,4903.99 5360.99,4921 5340,4921 C5319.01,4921 5302,4903.99 5302,4883 C5302,4862.01 5319.01,4845 5340,4845 C5360.99,4845 5378,4862.01 5378,4883 "/>
</g>

<g fill="#000000" fill-opacity="1" stroke="none" transform="matrix(1,0,0,1,0,0)"
font-family="MS Shell Dlg 2" font-size="291.042" font-weight="400" font-style="normal" 
>
<path vector-effect="non-scaling-stroke" fill-rule="evenodd" d="M5149,4883 C5149,4917.79 5120.79,4946 5086,4946 C5051.21,4946 5023,4917.79 5023,4883 C5023,4848.21 5051.21,4820 5086,4820 C5120.79,4820 5149,4848.21 5149,4883 "/>
</g>

<g fill="#ffffff" fill-opacity="1" stroke="none" transform="matrix(1,0,0,1,0,0)"
font-family="MS Shell Dlg 2" font-size="291.042" font-weight="400" font-style="normal" 
>
<path vector-effect="non-scaling-stroke" fill-rule="evenodd" d="M5124,4883 C5124,4903.99 5106.99,4921 5086,4921 C5065.01,4921 5048,4903.99 5048,4883 C5048,4862.01 5065.01,4845 5086,4845 C5106.99,4845 5124,4862.01 5124,4883 "/>
</g>

<g fill="#000000" fill-opacity="1" stroke="none" transform="matrix(1,0,0,1,0,0)"
font-family="MS Shell Dlg 2" font-size="291.042" font-weight="400" font-style="normal" 
>
<path vector-effect="non-scaling-stroke" fill-rule="evenodd" d="M4895,4883 C4895,4917.79 4866.79,4946 4832,4946 C4797.21,4946 4769,4917.79 4769,4883 C4769,4848.21 4797.21,4820 4832,4820 C4866.79,4820 4895,4848.21 4895,4883 "/>
</g>

<g fill="#ffffff" fill-opacity="1" stroke="none" transform="matrix(1,0,0,1,0,0)"
font-family="MS Shell Dlg 2" font-size="291.042" font-weight="400" font-style="normal" 
>
<path vector-effect="non-scaling-stroke" fill-rule="evenodd" d="M4870,4883 C4870,4903.99 4852.99,4921 4832,4921 C4811.01,4921 4794,4903.99 4794,4883 C4794,4862.01 4811.01,4845 4832,4845 C4852.99,4845 4870,4862.01 4870,4883 "/>
</g>

<g fill="#000000" fill-opacity="1" stroke="none" transform="matrix(1,0,0,1,0,0)"
font-family="MS Shell Dlg 2" font-size="291.042" font-weight="400" font-style="normal" 
>
<path vector-effect="non-scaling-stroke" fill-rule="evenodd" d="M4641,4883 C4641,4917.79 4612.79,4946 4578,4946 C4543.21,4946 4515,4917.79 4515,4883 C4515,4848.21 4543.21,4820 4578,4820 C4612.79,4820 4641,4848.21 4641,4883 "/>
</g>

<g fill="#ffffff" fill-opacity="1" stroke="none" transform="matrix(1,0,0,1,0,0)"
font-family="MS Shell Dlg 2" font-size="291.042" font-weight="400" font-style="normal" 
>
<path vector-effect="non-scaling-stroke" fill-rule="evenodd" d="M4616,4883 C4616,4903.99 4598.99,4921 4578,4921 C4557.01,4921 4540,4903.99 4540,4883 C4540,4862.01 4557.01,4845 4578,4845 C4598.99,4845 4616,4862.01 4616,4883 "/>
</g>

<g fill="#000000" fill-opacity="1" stroke="none" transform="matrix(1,0,0,1,0,0)"
font-family="MS Shell Dlg 2" font-size="291.042" font-weight="400" font-style="normal" 
>
<path vector-effect="non-scaling-stroke" fill-rule="evenodd" d="M4387,4883 C4387,4917.79 4358.79,4946 4324,4946 C4289.21,4946 4261,4917.79 4261,4883 C4261,4848.21 4289.21,4820 4324,4820 C4358.79,4820 4387,4848.21 4387,4883 "/>
</g>

<g fill="#ffffff" fill-opacity="1" stroke="none" transform="matrix(1,0,0,1,0,0)"
font-family="MS Shell Dlg 2" font-size="291.042" font-weight="400" font-style="normal" 
>
<path vector-effect="non-scaling-stroke" fill-rule="evenodd" d="M4362,4883 C4362,4903.99 4344.99,4921 4324,4921 C4303.01,4921 4286,4903.99 4286,4883 C4286,4862.01 4303.01,4845 4324,4845 C4344.99,4845 4362,4862.01 4362,4883 "/>
</g>

<g fill="#000000" fill-opacity="1" stroke="none" transform="matrix(1,0,0,1,0,0)"
font-family="MS Shell Dlg 2" font-size="291.042" font-weight="400" font-style="normal" 
>
<path vector-effect="non-scaling-stroke" fill-rule="evenodd" d="M4135,4883 C4135,4917.79 4106.79,4946 4072,4946 C4037.21,4946 4009,4917.79 4009,4883 C4009,4848.21 4037.21,4820 4072,4820 C4106.79,4820 4135,4848.21 4135,4883 "/>
</g>

<g fill="#ffffff" fill-opacity="1" stroke="none" transform="matrix(1,0,0,1,0,0)"
font-family="MS Shell Dlg 2" font-size="291.042" font-weight="400" font-style="normal" 
>
<path vector-effect="non-scaling-stroke" fill-rule="evenodd" d="M4110,4883 C4110,4903.99 4092.99,4921 4072,4921 C4051.01,4921 4034,4903.99 4034,4883 C4034,4862.01 4051.01,4845 4072,4845 C4092.99,4845 4110,4862.01 4110,4883 "/>
</g>

<g fill="#000000" fill-opacity="1" stroke="none" transform="matrix(1,0,0,1,0,0)"
font-family="MS Shell Dlg 2" font-size="291.042" font-weight="400" font-style="normal" 
>
<path vector-effect="non-scaling-stroke" fill-rule="evenodd" d="M4659,6311 L4861,6311 L4861,6513 L4659,6513 L4659,6311"/>
</g>

<g fill="#ffffff" fill-opacity="1" stroke="none" transform="matrix(1,0,0,1,0,0)"
font-family="MS Shell Dlg 2" font-size="291.042" font-weight="400" font-style="normal" 
>
<path vector-effect="non-scaling-stroke" fill-rule="evenodd" d="M4811,6412 C4811,6440.17 4788.17,6463 4760,6463 C4731.83,6463 4709,6440.17 4709,6412 C4709,6383.83 4731.83,6361 4760,6361 C4788.17,6361 4811,6383.83 4811,6412 "/>
</g>

<g fill="#000000" fill-opacity="1" stroke="none" transform="matrix(1,0,0,1,0,0)"
font-family="MS Shell Dlg 2" font-size="291.042" font-weight="400" font-style="normal" 
>
<path vector-effect="non-scaling-stroke" fill-rule="evenodd" d="M4913,6311 L5115,6311 L5115,6513 L4913,6513 L4913,6311"/>
</g>

<g fill="#ffffff" fill-opacity="1" stroke="none" transform="matrix(1,0,0,1,0,0)"
font-family="MS Shell Dlg 2" font-size="291.042" font-weight="400" font-style="normal" 
>
<path vector-effect="non-scaling-stroke" fill-rule="evenodd" d="M5065,6412 C5065,6440.17 5042.17,6463 5014,6463 C4985.83,6463 4963,6440.17 4963,6412 C4963,6383.83 4985.83,6361 5014,6361 C5042.17,6361 5065,6383.83 5065,6412 "/>
</g>

<g fill="#000000" fill-opacity="1" stroke="none" transform="matrix(1,0,0,1,0,0)"
font-family="MS Shell Dlg 2" font-size="291.042" font-weight="400" font-style="normal" 
>
<path vector-effect="non-scaling-stroke" fill-rule="evenodd" d="M5167,6311 L5369,6311 L5369,6513 L5167,6513 L5167,6311"/>
</g>

<g fill="#ffffff" fill-opacity="1" stroke="none" transform="matrix(1,0,0,1,0,0)"
font-family="MS Shell Dlg 2" font-size="291.042" font-weight="400" font-style="normal" 
>
<path vector-effect="non-scaling-stroke" fill-rule="evenodd" d="M5319,6412 C5319,6440.17 5296.17,6463 5268,6463 C5239.83,6463 5217,6440.17 5217,6412 C5217,6383.83 5239.83,6361 5268,6361 C5296.17,6361 5319,6383.83 5319,6412 "/>
</g>

<g fill="#000000" fill-opacity="1" stroke="none" transform="matrix(1,0,0,1,0,0)"
font-family="MS Shell Dlg 2" font-size="291.042" font-weight="400" font-style="normal" 
>
<path vector-effect="non-scaling-stroke" fill-rule="evenodd" d="M5421,6311 L5623,6311 L5623,6513 L5421,6513 L5421,6311"/>
</g>

<g fill="#ffffff" fill-opacity="1" stroke="none" transform="matrix(1,0,0,1,0,0)"
font-family="MS Shell Dlg 2" font-size="291.042" font-weight="400" font-style="normal" 
>
<path vector-effect="non-scaling-stroke" fill-rule="evenodd" d="M5573,6412 C5573,6440.17 5550.17,6463 5522,6463 C5493.83,6463 5471,6440.17 5471,6412 C5471,6383.83 5493.83,6361 5522,6361 C5550.17,6361 5573,6383.83 5573,6412 "/>
</g>

<g fill="#000000" fill-opacity="1" stroke="none" transform="matrix(1,0,0,1,0,0)"
font-family="MS Shell Dlg 2" font-size="291.042" font-weight="400" font-style="normal" 
>
<path vector-effect="non-scaling-stroke" fill-rule="evenodd" d="M5675,6311 L5877,6311 L5877,6513 L5675,6513 L5675,6311"/>
</g>

<g fill="#ffffff" fill-opacity="1" stroke="none" transform="matrix(1,0,0,1,0,0)"
font-family="MS Shell Dlg 2" font-size="291.042" font-weight="400" font-style="normal" 
>
<path vector-effect="non-scaling-stroke" fill-rule="evenodd" d="M5827,6412 C5827,6440.17 5804.17,6463 5776,6463 C5747.83,6463 5725,6440.17 5725,6412 C5725,6383.83 5747.83,6361 5776,6361 C5804.17,6361 5827,6383.83 5827,6412 "/>
</g>

<g fill="#000000" fill-opacity="1" stroke="none" transform="matrix(1,0,0,1,0,0)"
font-family="MS Shell Dlg 2" font-size="291.042" font-weight="400" font-style="normal" 
>
<path vector-effect="non-scaling-stroke" fill-rule="evenodd" d="M5929,6311 L6131,6311 L6131,6513 L5929,6513 L5929,6311"/>
</g>

<g fill="#ffffff" fill-opacity="1" stroke="none" transform="matrix(1,0,0,1,0,0)"
font-family="MS Shell Dlg 2" font-size="291.042" font-weight="400" font-style="normal" 
>
<path vector-effect="non-scaling-stroke" fill-rule="evenodd" d="M6081,6412 C6081,6440.17 6058.17,6463 6030,6463 C6001.83,6463 5979,6440.17 5979,6412 C5979,6383.83 6001.83,6361 6030,6361 C6058.17,6361 6081,6383.83 6081,6412 "/>
</g>

<g fill="#000000" fill-opacity="1" stroke="none" transform="matrix(1,0,0,1,0,0)"
font-family="MS Shell Dlg 2" font-size="291.042" font-weight="400" font-style="normal" 
>
<path vector-effect="non-scaling-stroke" fill-rule="evenodd" d="M2449,6311 L2651,6311 L2651,6513 L2449,6513 L2449,6311"/>
</g>

<g fill="#ffffff" fill-opacity="1" stroke="none" transform="matrix(1,0,0,1,0,0)"
font-family="MS Shell Dlg 2" font-size="291.042" font-weight="400" font-style="normal" 
>
<path vector-effect="non-scaling-stroke" fill-rule="evenodd" d="M2601,6412 C2601,6440.17 2578.17,6463 2550,6463 C2521.83,6463 2499,6440.17 2499,6412 C2499,6383.83 2521.83,6361 2550,6361 C2578.17,6361 2601,6383.83 2601,6412 "/>
</g>

<g fill="#000000" fill-opacity="1" stroke="none" transform="matrix(1,0,0,1,0,0)"
font-family="MS Shell Dlg 2" font-size="291.042" font-weight="400" font-style="normal" 
>
<path vector-effect="non-scaling-stroke" fill-rule="evenodd" d="M2195,6311 L2397,6311 L2397,6513 L2195,6513 L2195,6311"/>
</g>

<g fill="#ffffff" fill-opacity="1" stroke="none" transform="matrix(1,0,0,1,0,0)"
font-family="MS Shell Dlg 2" font-size="291.042" font-weight="400" font-style="normal" 
>
<path vector-effect="non-scaling-stroke" fill-rule="evenodd" d="M2347,6412 C2347,6440.17 2324.17,6463 2296,6463 C2267.83,6463 2245,6440.17 2245,6412 C2245,6383.83 2267.83,6361 2296,6361 C2324.17,6361 2347,6383.83 2347,6412 "/>
</g>

<g fill="#000000" fill-opacity="1" stroke="none" transform="matrix(1,0,0,1,0,0)"
font-family="MS Shell Dlg 2" font-size="291.042" font-weight="400" font-style="normal" 
>
<path vector-effect="non-scaling-stroke" fill-rule="evenodd" d="M1941,6311 L2143,6311 L2143,6513 L1941,6513 L1941,6311"/>
</g>

<g fill="#ffffff" fill-opacity="1" stroke="none" transform="matrix(1,0,0,1,0,0)"
font-family="MS Shell Dlg 2" font-size="291.042" font-weight="400" font-style="normal" 
>
<path vector-effect="non-scaling-stroke" fill-rule="evenodd" d="M2093,6412 C2093,6440.17 2070.17,6463 2042,6463 C2013.83,6463 1991,6440.17 1991,6412 C1991,6383.83 2013.83,6361 2042,6361 C2070.17,6361 2093,6383.83 2093,6412 "/>
</g>

<g fill="#000000" fill-opacity="1" stroke="none" transform="matrix(1,0,0,1,0,0)"
font-family="MS Shell Dlg 2" font-size="291.042" font-weight="400" font-style="normal" 
>
<path vector-effect="non-scaling-stroke" fill-rule="evenodd" d="M1687,6311 L1889,6311 L1889,6513 L1687,6513 L1687,6311"/>
</g>

<g fill="#ffffff" fill-opacity="1" stroke="none" transform="matrix(1,0,0,1,0,0)"
font-family="MS Shell Dlg 2" font-size="291.042" font-weight="400" font-style="normal" 
>
<path vector-effect="non-scaling-stroke" fill-rule="evenodd" d="M1839,6412 C1839,6440.17 1816.17,6463 1788,6463 C1759.83,6463 1737,6440.17 1737,6412 C1737,6383.83 1759.83,6361 1788,6361 C1816.17,6361 1839,6383.83 1839,6412 "/>
</g>

<g fill="#000000" fill-opacity="1" stroke="none" transform="matrix(1,0,0,1,0,0)"
font-family="MS Shell Dlg 2" font-size="291.042" font-weight="400" font-style="normal" 
>
<path vector-effect="non-scaling-stroke" fill-rule="evenodd" d="M4739,901 C4739,950.153 4699.15,990 4650,990 C4600.85,990 4561,950.153 4561,901 C4561,851.847 4600.85,812 4650,812 C4699.15,812 4739,851.847 4739,901 "/>
</g>

<g fill="#ffffff" fill-opacity="1" stroke="none" transform="matrix(1,0,0,1,0,0)"
font-family="MS Shell Dlg 2" font-size="291.042" font-weight="400" font-style="normal" 
>
<path vector-effect="non-scaling-stroke" fill-rule="evenodd" d="M4688,901 C4688,921.987 4670.99,939 4650,939 C4629.01,939 4612,921.987 4612,901 C4612,880.013 4629.01,863 4650,863 C4670.99,863 4688,880.013 4688,901 "/>
</g>

<g fill="#000000" fill-opacity="1" stroke="none" transform="matrix(1,0,0,1,0,0)"
font-family="MS Shell Dlg 2" font-size="291.042" font-weight="400" font-style="normal" 
>
<path vector-effect="non-scaling-stroke" fill-rule="evenodd" d="M4739,1917 C4739,1966.15 4699.15,2006 4650,2006 C4600.85,2006 4561,1966.15 4561,1917 C4561,1867.85 4600.85,1828 4650,1828 C4699.15,1828 4739,1867.85 4739,1917 "/>
</g>

<g fill="#ffffff" fill-opacity="1" stroke="none" transform="matrix(1,0,0,1,0,0)"
font-family="MS Shell Dlg 2" font-size="291.042" font-weight="400" font-style="normal" 
>
<path vector-effect="non-scaling-stroke" fill-rule="evenodd" d="M4688,1917 C4688,1937.99 4670.99,1955 4650,1955 C4629.01,1955 4612,1937.99 4612,1917 C4612,1896.01 4629.01,1879 4650,1879 C4670.99,1879 4688,1896.01 4688,1917 "/>
</g>

<g fill="#000000" fill-opacity="1" stroke="none" transform="matrix(1,0,0,1,0,0)"
font-family="MS Shell Dlg 2" font-size="291.042" font-weight="400" font-style="normal" 
>
<path vector-effect="non-scaling-stroke" fill-rule="evenodd" d="M5059,901 C5059,950.153 5019.15,990 4970,990 C4920.85,990 4881,950.153 4881,901 C4881,851.847 4920.85,812 4970,812 C5019.15,812 5059,851.847 5059,901 "/>
</g>

<g fill="#ffffff" fill-opacity="1" stroke="none" transform="matrix(1,0,0,1,0,0)"
font-family="MS Shell Dlg 2" font-size="291.042" font-weight="400" font-style="normal" 
>
<path vector-effect="non-scaling-stroke" fill-rule="evenodd" d="M5008,901 C5008,921.987 4990.99,939 4970,939 C4949.01,939 4932,921.987 4932,901 C4932,880.013 4949.01,863 4970,863 C4990.99,863 5008,880.013 5008,901 "/>
</g>

<g fill="#000000" fill-opacity="1" stroke="none" transform="matrix(1,0,0,1,0,0)"
font-family="MS Shell Dlg 2" font-size="291.042" font-weight="400" font-style="normal" 
>
<path vector-effect="non-scaling-stroke" fill-rule="evenodd" d="M5059,1917 C5059,1966.15 5019.15,2006 4970,2006 C4920.85,2006 4881,1966.15 4881,1917 C4881,1867.85 4920.85,1828 4970,1828 C5019.15,1828 5059,1867.85 5059,1917 "/>
</g>

<g fill="#ffffff" fill-opacity="1" stroke="none" transform="matrix(1,0,0,1,0,0)"
font-family="MS Shell Dlg 2" font-size="291.042" font-weight="400" font-style="normal" 
>
<path vector-effect="non-scaling-stroke" fill-rule="evenodd" d="M5008,1917 C5008,1937.99 4990.99,1955 4970,1955 C4949.01,1955 4932,1937.99 4932,1917 C4932,1896.01 4949.01,1879 4970,1879 C4990.99,1879 5008,1896.01 5008,1917 "/>
</g>

<g fill="#000000" fill-opacity="1" stroke="none" transform="matrix(1,0,0,1,0,0)"
font-family="MS Shell Dlg 2" font-size="291.042" font-weight="400" font-style="normal" 
>
<path vector-effect="non-scaling-stroke" fill-rule="evenodd" d="M5319,901 C5319,950.153 5279.15,990 5230,990 C5180.85,990 5141,950.153 5141,901 C5141,851.847 5180.85,812 5230,812 C5279.15,812 5319,851.847 5319,901 "/>
</g>

<g fill="#ffffff" fill-opacity="1" stroke="none" transform="matrix(1,0,0,1,0,0)"
font-family="MS Shell Dlg 2" font-size="291.042" font-weight="400" font-style="normal" 
>
<path vector-effect="non-scaling-stroke" fill-rule="evenodd" d="M5268,901 C5268,921.987 5250.99,939 5230,939 C5209.01,939 5192,921.987 5192,901 C5192,880.013 5209.01,863 5230,863 C5250.99,863 5268,880.013 5268,901 "/>
</g>

<g fill="#000000" fill-opacity="1" stroke="none" transform="matrix(1,0,0,1,0,0)"
font-family="MS Shell Dlg 2" font-size="291.042" font-weight="400" font-style="normal" 
>
<path vector-effect="non-scaling-stroke" fill-rule="evenodd" d="M5319,1917 C5319,1966.15 5279.15,2006 5230,2006 C5180.85,2006 5141,1966.15 5141,1917 C5141,1867.85 5180.85,1828 5230,1828 C5279.15,1828 5319,1867.85 5319,1917 "/>
</g>

<g fill="#ffffff" fill-opacity="1" stroke="none" transform="matrix(1,0,0,1,0,0)"
font-family="MS Shell Dlg 2" font-size="291.042" font-weight="400" font-style="normal" 
>
<path vector-effect="non-scaling-stroke" fill-rule="evenodd" d="M5268,1917 C5268,1937.99 5250.99,1955 5230,1955 C5209.01,1955 5192,1937.99 5192,1917 C5192,1896.01 5209.01,1879 5230,1879 C5250.99,1879 5268,1896.01 5268,1917 "/>
</g>

<g fill="#000000" fill-opacity="1" stroke="none" transform="matrix(1,0,0,1,0,0)"
font-family="MS Shell Dlg 2" font-size="291.042" font-weight="400" font-style="normal" 
>
<path vector-effect="non-scaling-stroke" fill-rule="evenodd" d="M5569,901 C5569,950.153 5529.15,990 5480,990 C5430.85,990 5391,950.153 5391,901 C5391,851.847 5430.85,812 5480,812 C5529.15,812 5569,851.847 5569,901 "/>
</g>

<g fill="#ffffff" fill-opacity="1" stroke="none" transform="matrix(1,0,0,1,0,0)"
font-family="MS Shell Dlg 2" font-size="291.042" font-weight="400" font-style="normal" 
>
<path vector-effect="non-scaling-stroke" fill-rule="evenodd" d="M5518,901 C5518,921.987 5500.99,939 5480,939 C5459.01,939 5442,921.987 5442,901 C5442,880.013 5459.01,863 5480,863 C5500.99,863 5518,880.013 5518,901 "/>
</g>

<g fill="#000000" fill-opacity="1" stroke="none" transform="matrix(1,0,0,1,0,0)"
font-family="MS Shell Dlg 2" font-size="291.042" font-weight="400" font-style="normal" 
>
<path vector-effect="non-scaling-stroke" fill-rule="evenodd" d="M5569,1917 C5569,1966.15 5529.15,2006 5480,2006 C5430.85,2006 5391,1966.15 5391,1917 C5391,1867.85 5430.85,1828 5480,1828 C5529.15,1828 5569,1867.85 5569,1917 "/>
</g>

<g fill="#ffffff" fill-opacity="1" stroke="none" transform="matrix(1,0,0,1,0,0)"
font-family="MS Shell Dlg 2" font-size="291.042" font-weight="400" font-style="normal" 
>
<path vector-effect="non-scaling-stroke" fill-rule="evenodd" d="M5518,1917 C5518,1937.99 5500.99,1955 5480,1955 C5459.01,1955 5442,1937.99 5442,1917 C5442,1896.01 5459.01,1879 5480,1879 C5500.99,1879 5518,1896.01 5518,1917 "/>
</g>

<g fill="#000000" fill-opacity="1" stroke="none" transform="matrix(1,0,0,1,0,0)"
font-family="MS Shell Dlg 2" font-size="291.042" font-weight="400" font-style="normal" 
>
<path vector-effect="non-scaling-stroke" fill-rule="evenodd" d="M5839,901 C5839,950.153 5799.15,990 5750,990 C5700.85,990 5661,950.153 5661,901 C5661,851.847 5700.85,812 5750,812 C5799.15,812 5839,851.847 5839,901 "/>
</g>

<g fill="#ffffff" fill-opacity="1" stroke="none" transform="matrix(1,0,0,1,0,0)"
font-family="MS Shell Dlg 2" font-size="291.042" font-weight="400" font-style="normal" 
>
<path vector-effect="non-scaling-stroke" fill-rule="evenodd" d="M5788,901 C5788,921.987 5770.99,939 5750,939 C5729.01,939 5712,921.987 5712,901 C5712,880.013 5729.01,863 5750,863 C5770.99,863 5788,880.013 5788,901 "/>
</g>

<g fill="#000000" fill-opacity="1" stroke="none" transform="matrix(1,0,0,1,0,0)"
font-family="MS Shell Dlg 2" font-size="291.042" font-weight="400" font-style="normal" 
>
<path vector-effect="non-scaling-stroke" fill-rule="evenodd" d="M5839,1917 C5839,1966.15 5799.15,2006 5750,2006 C5700.85,2006 5661,1966.15 5661,1917 C5661,1867.85 5700.85,1828 5750,1828 C5799.15,1828 5839,1867.85 5839,1917 "/>
</g>

<g fill="#ffffff" fill-opacity="1" stroke="none" transform="matrix(1,0,0,1,0,0)"
font-family="MS Shell Dlg 2" font-size="291.042" font-weight="400" font-style="normal" 
>
<path vector-effect="non-scaling-stroke" fill-rule="evenodd" d="M5788,1917 C5788,1937.99 5770.99,1955 5750,1955 C5729.01,1955 5712,1937.99 5712,1917 C5712,1896.01 5729.01,1879 5750,1879 C5770.99,1879 5788,1896.01 5788,1917 "/>
</g>

<g fill="#000000" fill-opacity="1" stroke="none" transform="matrix(1,0,0,1,0,0)"
font-family="MS Shell Dlg 2" font-size="291.042" font-weight="400" font-style="normal" 
>
<path vector-effect="non-scaling-stroke" fill-rule="evenodd" d="M6109,901 C6109,950.153 6069.15,990 6020,990 C5970.85,990 5931,950.153 5931,901 C5931,851.847 5970.85,812 6020,812 C6069.15,812 6109,851.847 6109,901 "/>
</g>

<g fill="#ffffff" fill-opacity="1" stroke="none" transform="matrix(1,0,0,1,0,0)"
font-family="MS Shell Dlg 2" font-size="291.042" font-weight="400" font-style="normal" 
>
<path vector-effect="non-scaling-stroke" fill-rule="evenodd" d="M6058,901 C6058,921.987 6040.99,939 6020,939 C5999.01,939 5982,921.987 5982,901 C5982,880.013 5999.01,863 6020,863 C6040.99,863 6058,880.013 6058,901 "/>
</g>

<g fill="#000000" fill-opacity="1" stroke="none" transform="matrix(1,0,0,1,0,0)"
font-family="MS Shell Dlg 2" font-size="291.042" font-weight="400" font-style="normal" 
>
<path vector-effect="non-scaling-stroke" fill-rule="evenodd" d="M6109,1917 C6109,1966.15 6069.15,2006 6020,2006 C5970.85,2006 5931,1966.15 5931,1917 C5931,1867.85 5970.85,1828 6020,1828 C6069.15,1828 6109,1867.85 6109,1917 "/>
</g>

<g fill="#ffffff" fill-opacity="1" stroke="none" transform="matrix(1,0,0,1,0,0)"
font-family="MS Shell Dlg 2" font-size="291.042" font-weight="400" font-style="normal" 
>
<path vector-effect="non-scaling-stroke" fill-rule="evenodd" d="M6058,1917 C6058,1937.99 6040.99,1955 6020,1955 C5999.01,1955 5982,1937.99 5982,1917 C5982,1896.01 5999.01,1879 6020,1879 C6040.99,1879 6058,1896.01 6058,1917 "/>
</g>

<g fill="#000000" fill-opacity="1" stroke="none" transform="matrix(1,0,0,1,0,0)"
font-family="MS Shell Dlg 2" font-size="291.042" font-weight="400" font-style="normal" 
>
<path vector-effect="non-scaling-stroke" fill-rule="evenodd" d="M6399,901 C6399,950.153 6359.15,990 6310,990 C6260.85,990 6221,950.153 6221,901 C6221,851.847 6260.85,812 6310,812 C6359.15,812 6399,851.847 6399,901 "/>
</g>

<g fill="#ffffff" fill-opacity="1" stroke="none" transform="matrix(1,0,0,1,0,0)"
font-family="MS Shell Dlg 2" font-size="291.042" font-weight="400" font-style="normal" 
>
<path vector-effect="non-scaling-stroke" fill-rule="evenodd" d="M6348,901 C6348,921.987 6330.99,939 6310,939 C6289.01,939 6272,921.987 6272,901 C6272,880.013 6289.01,863 6310,863 C6330.99,863 6348,880.013 6348,901 "/>
</g>

<g fill="#000000" fill-opacity="1" stroke="none" transform="matrix(1,0,0,1,0,0)"
font-family="MS Shell Dlg 2" font-size="291.042" font-weight="400" font-style="normal" 
>
<path vector-effect="non-scaling-stroke" fill-rule="evenodd" d="M6399,1917 C6399,1966.15 6359.15,2006 6310,2006 C6260.85,2006 6221,1966.15 6221,1917 C6221,1867.85 6260.85,1828 6310,1828 C6359.15,1828 6399,1867.85 6399,1917 "/>
</g>

<g fill="#ffffff" fill-opacity="1" stroke="none" transform="matrix(1,0,0,1,0,0)"
font-family="MS Shell Dlg 2" font-size="291.042" font-weight="400" font-style="normal" 
>
<path vector-effect="non-scaling-stroke" fill-rule="evenodd" d="M6348,1917 C6348,1937.99 6330.99,1955 6310,1955 C6289.01,1955 6272,1937.99 6272,1917 C6272,1896.01 6289.01,1879 6310,1879 C6330.99,1879 6348,1896.01 6348,1917 "/>
</g>

<g fill="#000000" fill-opacity="1" stroke="none" transform="matrix(1,0,0,1,0,0)"
font-family="MS Shell Dlg 2" font-size="291.042" font-weight="400" font-style="normal" 
>
<path vector-effect="non-scaling-stroke" fill-rule="evenodd" d="M6689,901 C6689,950.153 6649.15,990 6600,990 C6550.85,990 6511,950.153 6511,901 C6511,851.847 6550.85,812 6600,812 C6649.15,812 6689,851.847 6689,901 "/>
</g>

<g fill="#ffffff" fill-opacity="1" stroke="none" transform="matrix(1,0,0,1,0,0)"
font-family="MS Shell Dlg 2" font-size="291.042" font-weight="400" font-style="normal" 
>
<path vector-effect="non-scaling-stroke" fill-rule="evenodd" d="M6638,901 C6638,921.987 6620.99,939 6600,939 C6579.01,939 6562,921.987 6562,901 C6562,880.013 6579.01,863 6600,863 C6620.99,863 6638,880.013 6638,901 "/>
</g>

<g fill="#000000" fill-opacity="1" stroke="none" transform="matrix(1,0,0,1,0,0)"
font-family="MS Shell Dlg 2" font-size="291.042" font-weight="400" font-style="normal" 
>
<path vector-effect="non-scaling-stroke" fill-rule="evenodd" d="M6689,1917 C6689,1966.15 6649.15,2006 6600,2006 C6550.85,2006 6511,1966.15 6511,1917 C6511,1867.85 6550.85,1828 6600,1828 C6649.15,1828 6689,1867.85 6689,1917 "/>
</g>

<g fill="#ffffff" fill-opacity="1" stroke="none" transform="matrix(1,0,0,1,0,0)"
font-family="MS Shell Dlg 2" font-size="291.042" font-weight="400" font-style="normal" 
>
<path vector-effect="non-scaling-stroke" fill-rule="evenodd" d="M6638,1917 C6638,1937.99 6620.99,1955 6600,1955 C6579.01,1955 6562,1937.99 6562,1917 C6562,1896.01 6579.01,1879 6600,1879 C6620.99,1879 6638,1896.01 6638,1917 "/>
</g>

<g fill="#000000" fill-opacity="1" stroke="none" transform="matrix(1,0,0,1,0,0)"
font-family="MS Shell Dlg 2" font-size="291.042" font-weight="400" font-style="normal" 
>
<path vector-effect="non-scaling-stroke" fill-rule="evenodd" d="M4409,6412 C4409,6461.15 4369.15,6501 4320,6501 C4270.85,6501 4231,6461.15 4231,6412 C4231,6362.85 4270.85,6323 4320,6323 C4369.15,6323 4409,6362.85 4409,6412 "/>
</g>

<g fill="#ffffff" fill-opacity="1" stroke="none" transform="matrix(1,0,0,1,0,0)"
font-family="MS Shell Dlg 2" font-size="291.042" font-weight="400" font-style="normal" 
>
<path vector-effect="non-scaling-stroke" fill-rule="evenodd" d="M4358,6412 C4358,6432.99 4340.99,6450 4320,6450 C4299.01,6450 4282,6432.99 4282,6412 C4282,6391.01 4299.01,6374 4320,6374 C4340.99,6374 4358,6391.01 4358,6412 "/>
</g>

<g fill="#000000" fill-opacity="1" stroke="none" transform="matrix(1,0,0,1,0,0)"
font-family="MS Shell Dlg 2" font-size="291.042" font-weight="400" font-style="normal" 
>
<path vector-effect="non-scaling-stroke" fill-rule="evenodd" d="M3393,6412 C3393,6461.15 3353.15,6501 3304,6501 C3254.85,6501 3215,6461.15 3215,6412 C3215,6362.85 3254.85,6323 3304,6323 C3353.15,6323 3393,6362.85 3393,6412 "/>
</g>

<g fill="#ffffff" fill-opacity="1" stroke="none" transform="matrix(1,0,0,1,0,0)"
font-family="MS Shell Dlg 2" font-size="291.042" font-weight="400" font-style="normal" 
>
<path vector-effect="non-scaling-stroke" fill-rule="evenodd" d="M3342,6412 C3342,6432.99 3324.99,6450 3304,6450 C3283.01,6450 3266,6432.99 3266,6412 C3266,6391.01 3283.01,6374 3304,6374 C3324.99,6374 3342,6391.01 3342,6412 "/>
</g>

<g fill="#000000" fill-opacity="1" stroke="none" transform="matrix(1,0,0,1,0,0)"
font-family="MS Shell Dlg 2" font-size="291.042" font-weight="400" font-style="normal" 
>
<path vector-effect="non-scaling-stroke" fill-rule="evenodd" d="M2939,4909 L3141,4909 L3141,5111 L2939,5111 L2939,4909"/>
</g>

<g fill="#ffffff" fill-opacity="1" stroke="none" transform="matrix(1,0,0,1,0,0)"
font-family="MS Shell Dlg 2" font-size="291.042" font-weight="400" font-style="normal" 
>
<path vector-effect="non-scaling-stroke" fill-rule="evenodd" d="M3091,5010 C3091,5038.17 3068.17,5061 3040,5061 C3011.83,5061 2989,5038.17 2989,5010 C2989,4981.83 3011.83,4959 3040,4959 C3068.17,4959 3091,4981.83 3091,5010 "/>
</g>

<g fill="#000000" fill-opacity="1" stroke="none" transform="matrix(1,0,0,1,0,0)"
font-family="MS Shell Dlg 2" font-size="291.042" font-weight="400" font-style="normal" 
>
<path vector-effect="non-scaling-stroke" fill-rule="evenodd" d="M2939,5163 L3141,5163 L3141,5365 L2939,5365 L2939,5163"/>
</g>

<g fill="#ffffff" fill-opacity="1" stroke="none" transform="matrix(1,0,0,1,0,0)"
font-family="MS Shell Dlg 2" font-size="291.042" font-weight="400" font-style="normal" 
>
<path vector-effect="non-scaling-stroke" fill-rule="evenodd" d="M3091,5264 C3091,5292.17 3068.17,5315 3040,5315 C3011.83,5315 2989,5292.17 2989,5264 C2989,5235.83 3011.83,5213 3040,5213 C3068.17,5213 3091,5235.83 3091,5264 "/>
</g>

<g fill="#000000" fill-opacity="1" stroke="none" transform="matrix(1,0,0,1,0,0)"
font-family="MS Shell Dlg 2" font-size="291.042" font-weight="400" font-style="normal" 
>
<path vector-effect="non-scaling-stroke" fill-rule="evenodd" d="M2939,5417 L3141,5417 L3141,5619 L2939,5619 L2939,5417"/>
</g>

<g fill="#ffffff" fill-opacity="1" stroke="none" transform="matrix(1,0,0,1,0,0)"
font-family="MS Shell Dlg 2" font-size="291.042" font-weight="400" font-style="normal" 
>
<path vector-effect="non-scaling-stroke" fill-rule="evenodd" d="M3091,5518 C3091,5546.17 3068.17,5569 3040,5569 C3011.83,5569 2989,5546.17 2989,5518 C2989,5489.83 3011.83,5467 3040,5467 C3068.17,5467 3091,5489.83 3091,5518 "/>
</g>

<g fill="#000000" fill-opacity="1" stroke="none" transform="matrix(1,0,0,1,0,0)"
font-family="MS Shell Dlg 2" font-size="291.042" font-weight="400" font-style="normal" 
>
<path vector-effect="non-scaling-stroke" fill-rule="evenodd" d="M7029,6311 L7231,6311 L7231,6513 L7029,6513 L7029,6311"/>
</g>

<g fill="#ffffff" fill-opacity="1" stroke="none" transform="matrix(1,0,0,1,0,0)"
font-family="MS Shell Dlg 2" font-size="291.042" font-weight="400" font-style="normal" 
>
<path vector-effect="non-scaling-stroke" fill-rule="evenodd" d="M7181,6412 C7181,6440.17 7158.17,6463 7130,6463 C7101.83,6463 7079,6440.17 7079,6412 C7079,6383.83 7101.83,6361 7130,6361 C7158.17,6361 7181,6383.83 7181,6412 "/>
</g>

<g fill="#000000" fill-opacity="1" stroke="none" transform="matrix(1,0,0,1,0,0)"
font-family="MS Shell Dlg 2" font-size="291.042" font-weight="400" font-style="normal" 
>
<path vector-effect="non-scaling-stroke" fill-rule="evenodd" d="M7283,6311 L7485,6311 L7485,6513 L7283,6513 L7283,6311"/>
</g>

<g fill="#ffffff" fill-opacity="1" stroke="none" transform="matrix(1,0,0,1,0,0)"
font-family="MS Shell Dlg 2" font-size="291.042" font-weight="400" font-style="normal" 
>
<path vector-effect="non-scaling-stroke" fill-rule="evenodd" d="M7435,6412 C7435,6440.17 7412.17,6463 7384,6463 C7355.83,6463 7333,6440.17 7333,6412 C7333,6383.83 7355.83,6361 7384,6361 C7412.17,6361 7435,6383.83 7435,6412 "/>
</g>

<g fill="#000000" fill-opacity="1" stroke="none" transform="matrix(1,0,0,1,0,0)"
font-family="MS Shell Dlg 2" font-size="291.042" font-weight="400" font-style="normal" 
>
<path vector-effect="non-scaling-stroke" fill-rule="evenodd" d="M11965,640 C11965,764.264 11864.3,865 11740,865 C11615.7,865 11515,764.264 11515,640 C11515,515.736 11615.7,415 11740,415 C11864.3,415 11965,515.736 11965,640 "/>
</g>

<g fill="#ffffff" fill-opacity="1" stroke="none" transform="matrix(1,0,0,1,0,0)"
font-family="MS Shell Dlg 2" font-size="291.042" font-weight="400" font-style="normal" 
>
<path vector-effect="non-scaling-stroke" fill-rule="evenodd" d="M11900,640 C11900,728.366 11828.4,800 11740,800 C11651.6,800 11580,728.366 11580,640 C11580,551.634 11651.6,480 11740,480 C11828.4,480 11900,551.634 11900,640 "/>
</g>

<g fill="#000000" fill-opacity="1" stroke="none" transform="matrix(1,0,0,1,0,0)"
font-family="MS Shell Dlg 2" font-size="291.042" font-weight="400" font-style="normal" 
>
<path vector-effect="non-scaling-stroke" fill-rule="evenodd" d="M10985,4795 C10985,4919.26 10884.3,5020 10760,5020 C10635.7,5020 10535,4919.26 10535,4795 C10535,4670.74 10635.7,4570 10760,4570 C10884.3,4570 10985,4670.74 10985,4795 "/>
</g>

<g fill="#ffffff" fill-opacity="1" stroke="none" transform="matrix(1,0,0,1,0,0)"
font-family="MS Shell Dlg 2" font-size="291.042" font-weight="400" font-style="normal" 
>
<path vector-effect="non-scaling-stroke" fill-rule="evenodd" d="M10920,4795 C10920,4883.37 10848.4,4955 10760,4955 C10671.6,4955 10600,4883.37 10600,4795 C10600,4706.63 10671.6,4635 10760,4635 C10848.4,4635 10920,4706.63 10920,4795 "/>
</g>

<g fill="#000000" fill-opacity="1" stroke="none" transform="matrix(1,0,0,1,0,0)"
font-family="MS Shell Dlg 2" font-size="291.042" font-weight="400" font-style="normal" 
>
<path vector-effect="non-scaling-stroke" fill-rule="evenodd" d="M1155,4795 C1155,4919.26 1054.26,5020 930,5020 C805.736,5020 705,4919.26 705,4795 C705,4670.74 805.736,4570 930,4570 C1054.26,4570 1155,4670.74 1155,4795 "/>
</g>

<g fill="#ffffff" fill-opacity="1" stroke="none" transform="matrix(1,0,0,1,0,0)"
font-family="MS Shell Dlg 2" font-size="291.042" font-weight="400" font-style="normal" 
>
<path vector-effect="non-scaling-stroke" fill-rule="evenodd" d="M1090,4795 C1090,4883.37 1018.37,4955 930,4955 C841.634,4955 770,4883.37 770,4795 C770,4706.63 841.634,4635 930,4635 C1018.37,4635 1090,4706.63 1090,4795 "/>
</g>

<g fill="none" stroke="#000000" stroke-opacity="1" stroke-width="20" stroke-linecap="round" stroke-linejoin="bevel" transform="matrix(1,0,0,1,0,0)"
font-family="MS Shell Dlg 2" font-size="291.042" font-weight="400" font-style="normal" 
>
<path vector-effect="none" fill-rule="evenodd" d="M270,251 L12090,251 L12090,7821 L270,7821 L270,251"/>
</g>
</g>
</svg>
